<?xml version="1.0" encoding="utf-8"?>
<!-- Generator: Adobe Illustrator 22.1.0, SVG Export Plug-In . SVG Version: 6.00 Build 0)  -->
<svg version="1.1" id="icon" xmlns="http://www.w3.org/2000/svg" xmlns:xlink="http://www.w3.org/1999/xlink" x="0px" y="0px"
	 viewBox="0 0 45 40" style="enable-background:new 0 0 45 40;" xml:space="preserve">
<style type="text/css">
	.st0{fill:#13CE66;}
</style>
<g id="wallet" transform="translate(1703.000000, 177.000000)">
	<path id="Shape" class="st0" d="M-1660.1-160.3h-0.7v-2v-7c0-2.3-1.9-4.2-4.2-4.2h-18.1l-12.2-3.5c0,0,0,0,0,0c0,0,0,0,0,0
		c0,0,0,0,0,0c0,0,0,0,0,0c0,0,0,0,0,0c0,0,0,0,0,0c0,0,0,0,0,0c0,0,0,0,0,0c0,0,0,0,0,0c0,0,0,0,0,0c0,0,0,0,0,0c0,0,0,0,0,0
		c0,0,0,0,0,0c0,0,0,0,0,0c0,0,0,0,0,0c0,0,0,0,0,0c0,0,0,0,0,0c0,0,0,0,0,0c0,0,0,0,0,0c0,0,0,0,0,0c0,0,0,0,0,0c0,0,0,0,0,0
		c0,0,0,0,0,0c0,0,0,0,0,0c0,0,0,0,0,0c0,0,0,0,0,0c0,0,0,0,0,0c0,0,0,0,0,0c0,0,0,0,0,0c0,0,0,0,0,0c0,0,0,0,0,0c0,0,0,0,0,0
		c0,0,0,0,0,0c0,0,0,0,0,0c0,0,0,0,0,0c0,0,0,0,0,0l-0.8,3h-2.1c-2.3,0-4.2,1.9-4.2,4.2c0,0,0,0,0,0v22.8c0,0.4,0.3,0.7,0.7,0.7
		c0.4,0,0.7-0.3,0.7-0.7v-19.8c0.7,0.7,1.7,1.1,2.9,1.1h33.9c0,0,0,0,0,0c1.6,0,2.8,1.3,2.8,2.9v4.6h-7.2c0,0,0,0,0,0c0,0,0,0-0.1,0
		c0,0,0,0-0.1,0c0,0,0,0,0,0c0,0,0,0-0.1,0c0,0,0,0,0,0c0,0,0,0,0,0c0,0,0,0,0,0c0,0,0,0,0,0c0,0,0,0,0,0c0,0,0,0,0,0c0,0,0,0,0,0
		c0,0,0,0,0,0c0,0,0,0,0,0c0,0,0,0,0,0c0,0,0,0,0,0c0,0,0,0,0,0c0,0,0,0,0,0c0,0,0,0,0,0.1c0,0,0,0,0,0l-3.5,5.3c0,0,0,0.1-0.1,0.1
		c0,0,0,0,0,0c0,0,0,0,0,0c0,0,0,0,0,0c0,0,0,0,0,0c0,0,0,0,0,0c0,0,0,0,0,0c0,0,0,0,0,0c0,0,0,0,0,0c0,0,0,0,0,0c0,0,0,0,0,0
		c0,0,0,0,0,0c0,0,0,0,0,0c0,0,0,0,0,0c0,0,0,0,0,0c0,0,0,0,0,0c0,0,0,0,0,0c0,0,0,0.1,0.1,0.1l3.5,5.3c0,0,0,0,0,0c0,0,0,0,0,0.1
		c0,0,0,0,0,0c0,0,0,0,0,0c0,0,0,0,0,0c0,0,0,0,0,0c0,0,0,0,0,0c0,0,0,0,0.1,0c0,0,0,0,0,0c0,0,0,0,0.1,0c0,0,0,0,0,0c0,0,0,0,0.1,0
		c0,0,0,0,0,0c0,0,0,0,0.1,0c0,0,0,0,0,0c0,0,0,0,0.1,0c0,0,0,0,0,0c0,0,0,0,0,0h7.2v4.6c0,1.6-1.3,2.9-2.9,2.9h-33.9
		c-1.6,0-2.9-1.3-2.9-2.9c0,0,0,0,0,0v-2.6c0-0.4-0.3-0.7-0.7-0.7c-0.4,0-0.7,0.3-0.7,0.7v2.6c0,0,0,0,0,0c0,2.3,1.9,4.1,4.2,4.1
		h33.9c2.3,0,4.2-1.9,4.2-4.2c0,0,0,0,0,0v-4.6h0.7c1.1,0,2-0.9,2-2v-10.5C-1658.1-159.4-1659-160.3-1660.1-160.3z M-1694.9-175.5
		l11.6,3.3c0,0,0,0,0,0l7.8,2.2h-20.8L-1694.9-175.5z M-1662-165.3c-0.7-0.7-1.7-1.1-2.9-1.1c0,0,0,0,0,0h-33.9
		c-1.6,0-2.9-1.3-2.9-2.9s1.3-2.9,2.9-2.9h1.8l-0.5,2.2h-1.2c-0.4,0-0.7,0.3-0.7,0.7s0.3,0.7,0.7,0.7h1.8c0,0,0,0,0,0c0,0,0,0,0,0
		h26.3c0,0,0,0,0,0s0,0,0,0h5c0.4,0,0.7-0.3,0.7-0.7s-0.3-0.7-0.7-0.7h-4.9l-7.7-2.2h13.5c1.6,0,2.9,1.3,2.9,2.9V-165.3z
		 M-1659.4-147.8c0,0.4-0.3,0.7-0.7,0.7h-8.9l-3.1-4.6l3.1-4.6h8.9c0,0,0,0,0,0c0.2,0,0.4,0,0.6-0.1V-147.8z M-1660.1-157.7
		C-1660.1-157.7-1660.1-157.7-1660.1-157.7l-0.7,0v-1.3h0.7c0.4,0,0.7,0.3,0.7,0.7C-1659.4-158-1659.7-157.7-1660.1-157.7z"/>
	<path id="Shape_1_" class="st0" d="M-1666.6-154.1c-1.3,0-2.4,1.1-2.4,2.4s1.1,2.4,2.4,2.4c1.3,0,2.4-1.1,2.4-2.4
		S-1665.3-154.1-1666.6-154.1z M-1666.6-150.6c-0.6,0-1.1-0.5-1.1-1.1s0.5-1.1,1.1-1.1c0.6,0,1.1,0.5,1.1,1.1
		S-1666-150.6-1666.6-150.6z"/>
</g>
</svg>
