<?xml version="1.0" encoding="utf-8"?>
<!-- Generator: Adobe Illustrator 22.1.0, SVG Export Plug-In . SVG Version: 6.00 Build 0)  -->
<svg version="1.1" id="icon" xmlns="http://www.w3.org/2000/svg" xmlns:xlink="http://www.w3.org/1999/xlink" x="0px" y="0px"
	 viewBox="0 0 50 50" style="enable-background:new 0 0 50 50;" xml:space="preserve">
<style type="text/css">
	.st0{fill:#FFFFFF;}
</style>
<g id="date" transform="translate(1183.000000, 20.000000)">
	<g id="_x30_05-calendar" transform="translate(0.000000, 7.000000)">
		<path id="Shape" class="st0" d="M-1141.1-17.8c-1.3-0.7-9.4-5.1-13.9-7.9c-0.8-0.8-1.8-1.3-3-1.3s-2.3,0.5-3,1.3
			c-4.5,2.8-12.6,7.2-13.9,7.9h-8.1V23h50v-40.8H-1141.1z M-1156.1-24.5C-1156.1-24.5-1156.1-24.5-1156.1-24.5
			c0.2,0.2,0.4,0.6,0.6,1c0,0,0,0.1,0,0.1c0,0.2,0.1,0.3,0.1,0.5c0,1.4-1.1,2.5-2.5,2.5s-2.5-1.1-2.5-2.5c0-0.2,0-0.4,0.1-0.5
			c0,0,0-0.1,0-0.1c0.1-0.4,0.3-0.8,0.5-1c0,0,0,0,0,0c0.5-0.5,1.1-0.8,1.9-0.8S-1156.6-25-1156.1-24.5z M-1162.2-23
			c0,0.1,0,0.1,0,0.2c0,2.3,1.9,4.2,4.2,4.2s4.2-1.9,4.2-4.2c0-0.1,0-0.1,0-0.2c3,1.8,6.7,3.8,9.2,5.2h-26.8
			C-1168.9-19.2-1165.2-21.3-1162.2-23z M-1174.7-16.2h33.3h6.7v4.2h-46.7v-4.2H-1174.7z M-1181.3,21.3v-31.7h46.7v31.7H-1181.3z"/>
		<circle id="Oval" class="st0" cx="-1163.8" cy="-3.7" r="1"/>
		<circle id="Oval_1_" class="st0" cx="-1158" cy="-3.7" r="1"/>
		<circle id="Oval_2_" class="st0" cx="-1152.2" cy="-3.7" r="1"/>
		<circle id="Oval_3_" class="st0" cx="-1146.3" cy="-3.7" r="1"/>
		<circle id="Oval_4_" class="st0" cx="-1140.5" cy="-3.7" r="1"/>
		<circle id="Oval_5_" class="st0" cx="-1175.5" cy="3" r="1"/>
		<circle id="Oval_6_" class="st0" cx="-1169.7" cy="3" r="1"/>
		<circle id="Oval_7_" class="st0" cx="-1163.8" cy="3" r="1"/>
		<circle id="Oval_8_" class="st0" cx="-1158" cy="3" r="1"/>
		<circle id="Oval_9_" class="st0" cx="-1152.2" cy="3" r="1"/>
		<circle id="Oval_10_" class="st0" cx="-1146.3" cy="3" r="1"/>
		<circle id="Oval_11_" class="st0" cx="-1140.5" cy="3" r="1"/>
		<circle id="Oval_12_" class="st0" cx="-1175.5" cy="8.8" r="1"/>
		<circle id="Oval_13_" class="st0" cx="-1169.7" cy="8.8" r="1"/>
		<circle id="Oval_14_" class="st0" cx="-1163.8" cy="8.8" r="1"/>
		<circle id="Oval_15_" class="st0" cx="-1158" cy="8.8" r="1"/>
		<circle id="Oval_16_" class="st0" cx="-1152.2" cy="8.8" r="1"/>
		<circle id="Oval_17_" class="st0" cx="-1146.3" cy="8.8" r="1"/>
		<circle id="Oval_18_" class="st0" cx="-1140.5" cy="8.8" r="1"/>
		<circle id="Oval_19_" class="st0" cx="-1175.5" cy="15.5" r="1"/>
		<circle id="Oval_20_" class="st0" cx="-1169.7" cy="15.5" r="1"/>
		<circle id="Oval_21_" class="st0" cx="-1163.8" cy="15.5" r="1"/>
		<circle id="Oval_22_" class="st0" cx="-1158" cy="15.5" r="1"/>
		<circle id="Oval_23_" class="st0" cx="-1152.2" cy="15.5" r="1"/>
	</g>
</g>
</svg>
