<?xml version="1.0" encoding="utf-8"?>
<!-- Generator: Adobe Illustrator 22.1.0, SVG Export Plug-In . SVG Version: 6.00 Build 0)  -->
<svg version="1.1" id="icon" xmlns="http://www.w3.org/2000/svg" xmlns:xlink="http://www.w3.org/1999/xlink" x="0px" y="0px"
	 viewBox="0 0 38 40" style="enable-background:new 0 0 38 40;" xml:space="preserve">
<style type="text/css">
	.st0{fill:#FFFFFF;}
</style>
<g id="disco-ball" transform="translate(1027.000000, 449.000000)">
	<path id="Shape" class="st0" d="M-1021.5-441.2c-0.2,0.2-0.2,0.6,0,0.8l0.8,0.8c0.1,0.1,0.3,0.2,0.4,0.2s0.3-0.1,0.4-0.2
		c0.2-0.2,0.2-0.6,0-0.8l-0.8-0.8C-1020.9-441.5-1021.3-441.5-1021.5-441.2z"/>
	<path id="Shape_1_" class="st0" d="M-1021.1-443.4c0.1,0,0.3-0.1,0.4-0.2l0.8-0.8c0.2-0.2,0.2-0.6,0-0.8c-0.2-0.2-0.6-0.2-0.8,0
		l-0.8,0.8c-0.2,0.2-0.2,0.6,0,0.8C-1021.4-443.5-1021.2-443.4-1021.1-443.4z"/>
	<path id="Shape_2_" class="st0" d="M-995.8-439.4l-0.8,0.8c-0.2,0.2-0.2,0.6,0,0.8c0.1,0.1,0.3,0.2,0.4,0.2s0.3-0.1,0.4-0.2
		l0.8-0.8c0.2-0.2,0.2-0.6,0-0.8C-995.2-439.7-995.6-439.7-995.8-439.4z"/>
	<path id="Shape_3_" class="st0" d="M-1022.7-443.1c0.3,0,0.6-0.3,0.6-0.6v-2.4c0-0.3-0.3-0.6-0.6-0.6c-0.3,0-0.6,0.3-0.6,0.6v2.4
		C-1023.3-443.4-1023-443.1-1022.7-443.1z"/>
	<path id="Shape_4_" class="st0" d="M-1021.4-441.8h2.4c0.3,0,0.6-0.3,0.6-0.6s-0.3-0.6-0.6-0.6h-2.4c-0.3,0-0.6,0.3-0.6,0.6
		C-1022-442.1-1021.7-441.8-1021.4-441.8z"/>
	<path id="Shape_5_" class="st0" d="M-992.2-441.7c0.1,0,0.3-0.1,0.4-0.2l0.8-0.8c0.2-0.2,0.2-0.6,0-0.8c-0.2-0.2-0.6-0.2-0.8,0
		l-0.8,0.8c-0.2,0.2-0.2,0.6,0,0.8C-992.5-441.7-992.4-441.7-992.2-441.7z"/>
	<path id="Shape_6_" class="st0" d="M-993.8-441.3c0.3,0,0.6-0.3,0.6-0.6v-2.4c0-0.3-0.3-0.6-0.6-0.6c-0.3,0-0.6,0.3-0.6,0.6v2.4
		C-994.4-441.6-994.1-441.3-993.8-441.3z"/>
	<path id="Shape_7_" class="st0" d="M-995.8-441.8c0.1,0.1,0.3,0.2,0.4,0.2c0.1,0,0.3-0.1,0.4-0.2c0.2-0.2,0.2-0.6,0-0.8l-0.8-0.8
		c-0.2-0.2-0.6-0.2-0.8,0c-0.2,0.2-0.2,0.6,0,0.8L-995.8-441.8z"/>
	<path id="Shape_8_" class="st0" d="M-997.5-440.1h2.4c0.3,0,0.6-0.3,0.6-0.6c0-0.3-0.3-0.6-0.6-0.6h-2.4c-0.3,0-0.6,0.3-0.6,0.6
		C-998.1-440.3-997.8-440.1-997.5-440.1z"/>
	<path id="Shape_9_" class="st0" d="M-993.8-436.4c0.3,0,0.6-0.3,0.6-0.6v-2.4c0-0.3-0.3-0.6-0.6-0.6c-0.3,0-0.6,0.3-0.6,0.6v2.4
		C-994.4-436.6-994.1-436.4-993.8-436.4z"/>
	<path id="Shape_10_" class="st0" d="M-1015-425.1c0.3,0,0.6-0.3,0.6-0.6v-1c0-0.3-0.3-0.6-0.6-0.6s-0.6,0.3-0.6,0.6v1
		C-1015.6-425.4-1015.3-425.1-1015-425.1z"/>
	<path id="Shape_11_" class="st0" d="M-991.8-439.4c-0.2-0.2-0.6-0.2-0.8,0c-0.2,0.2-0.2,0.6,0,0.8l0.8,0.8c0.1,0.1,0.3,0.2,0.4,0.2
		c0.1,0,0.3-0.1,0.4-0.2c0.2-0.2,0.2-0.6,0-0.8L-991.8-439.4z"/>
	<path id="Shape_12_" class="st0" d="M-992.5-427.9c-0.9-6-5-11-10.6-13.1c-0.7-2.3-2.7-4-5.1-4.2v-3.2c0-0.3-0.3-0.6-0.6-0.6
		c-0.3,0-0.6,0.3-0.6,0.6v3.2c-2.4,0.2-4.4,1.9-5.1,4.2c-1.3,0.5-2.6,1.1-3.8,2c-0.3,0.2-0.3,0.6-0.1,0.8c0.2,0.3,0.6,0.3,0.8,0.1
		c1.2-0.8,2.4-1.5,3.7-1.9c0,0,0.1,0,0.1,0c0.2-0.1,0.4-0.1,0.6-0.2c-1.3,1.6-3,4.3-4.1,7.9c-2.3,0.8-4.5,1.9-6.3,3.1
		c0.7-2.7,2-5.1,4-7.2c0.2-0.2,0.2-0.6,0-0.8c-0.2-0.2-0.6-0.2-0.8,0c-3.1,3.1-4.8,7.3-4.8,11.7c0,0.8,0.1,1.6,0.2,2.3
		c0,0,0,0,0,0.1c1,7,6.5,12.6,13.4,13.8c0,0,0,0,0.1,0c0.9,0.2,1.9,0.2,2.9,0.2c1,0,1.9-0.1,2.9-0.2c0,0,0,0,0.1,0
		c6.9-1.2,12.4-6.8,13.4-13.8c0,0,0,0,0-0.1c0.1-0.8,0.2-1.5,0.2-2.3C-992.4-426.3-992.4-427.1-992.5-427.9
		C-992.5-427.9-992.5-427.9-992.5-427.9z M-994-429.2c-1.8-1.3-4-2.4-6.3-3.1c-1.1-3.6-2.8-6.2-4.1-7.9
		C-999.3-438.6-995.3-434.4-994-429.2z M-1008.9-444c1.8,0,3.5,1,4.3,2.6c-0.5-0.1-0.9-0.2-1.4-0.3c0,0,0,0-0.1,0
		c-0.9-0.2-1.9-0.2-2.8-0.2c-1.5,0-2.9,0.2-4.3,0.6C-1012.3-443-1010.7-444-1008.9-444z M-1011.4-440.6c0.8-0.1,1.6-0.2,2.5-0.2
		c0.8,0,1.7,0.1,2.5,0.2c1.1,1.1,3.3,3.8,4.7,7.9c-2.3-0.6-4.7-1-7.2-1c-2.4,0-4.8,0.3-7.2,1
		C-1014.6-436.8-1012.4-439.5-1011.4-440.6z M-1016.5-431.4c2.5-0.8,5-1.1,7.6-1.1c2.6,0,5.1,0.4,7.6,1.1c0.5,1.9,0.8,3.9,0.8,5.9
		s-0.3,3.9-0.8,5.9c-2.5,0.8-5,1.1-7.6,1.1c-2.6,0-5.1-0.4-7.6-1.1c-0.5-1.9-0.8-3.9-0.8-5.9C-1017.3-427.5-1017-429.4-1016.5-431.4
		z M-1024.2-425.5c0-0.7,0-1.3,0.1-2c1.7-1.3,3.9-2.6,6.3-3.5c-0.4,1.8-0.7,3.6-0.7,5.4c0,1.8,0.2,3.6,0.7,5.4
		c-2.4-0.9-4.6-2.1-6.3-3.5C-1024.1-424.2-1024.2-424.8-1024.2-425.5z M-1006.4-410.4c-0.8,0.1-1.6,0.2-2.5,0.2
		c-0.8,0-1.7-0.1-2.5-0.2c-0.9-1-1.8-2.2-2.6-3.5c-0.2-0.3-0.5-0.4-0.8-0.2c-0.3,0.2-0.4,0.5-0.2,0.8c0.5,0.9,1.1,1.7,1.7,2.5
		c-5.1-1.6-9.1-5.7-10.4-11c1.8,1.3,4,2.4,6.3,3.1c0.3,1.1,0.8,2.2,1.2,3.2c0.1,0.2,0.3,0.3,0.5,0.3c0.1,0,0.2,0,0.2-0.1
		c0.3-0.1,0.4-0.5,0.3-0.8c-0.4-0.8-0.7-1.5-0.9-2.3c2.3,0.6,4.7,1,7.2,1c2.4,0,4.8-0.3,7.2-1
		C-1003.1-414.2-1005.3-411.5-1006.4-410.4z M-993.7-423.5c-0.5,0.4-1.1,0.8-1.7,1.2c-0.3,0.2-0.4,0.5-0.2,0.8
		c0.1,0.2,0.3,0.3,0.5,0.3c0.1,0,0.2,0,0.3-0.1c0.3-0.2,0.5-0.4,0.8-0.5c-1.3,5.2-5.3,9.4-10.4,11c1.3-1.6,3-4.3,4.1-7.9
		c1.1-0.4,2.2-0.8,3.3-1.3c0.3-0.1,0.4-0.5,0.3-0.8c-0.1-0.3-0.5-0.4-0.8-0.3c-0.8,0.4-1.6,0.7-2.4,1c0.4-1.8,0.7-3.6,0.7-5.4
		s-0.2-3.6-0.7-5.4c2.4,0.9,4.6,2.1,6.3,3.5c0.1,0.6,0.1,1.3,0.1,2C-993.5-424.8-993.6-424.2-993.7-423.5z"/>
	<path id="Shape_13_" class="st0" d="M-1009.1-422.6C-1009-422.6-1009-422.6-1009.1-422.6c0.7,0,1.3-0.2,1.7-0.6
		c0.5-0.4,0.7-1,0.7-1.7v-1.3c0-0.6-0.5-1.1-1.1-1.1h-2.5c-0.6,0-1.1,0.5-1.1,1.1v1.2C-1011.3-423.7-1010.3-422.7-1009.1-422.6z
		 M-1010.1-426.1L-1010.1-426.1h2.3v1.1c0,0.3-0.1,0.6-0.3,0.8c-0.2,0.2-0.5,0.3-0.8,0.3c-0.6,0-1.1-0.6-1.1-1.2V-426.1z"/>
	<path id="Shape_14_" class="st0" d="M-1022.7-438.1c0.3,0,0.6-0.3,0.6-0.6v-2.4c0-0.3-0.3-0.6-0.6-0.6c-0.3,0-0.6,0.3-0.6,0.6v2.4
		C-1023.3-438.4-1023-438.1-1022.7-438.1z"/>
	<path id="Shape_15_" class="st0" d="M-990.1-441.2h-2.4c-0.3,0-0.6,0.3-0.6,0.6c0,0.3,0.3,0.6,0.6,0.6h2.4c0.3,0,0.6-0.3,0.6-0.6
		S-989.8-441.2-990.1-441.2z"/>
	<path id="Shape_16_" class="st0" d="M-1002.7-425.1c0.3,0,0.6-0.3,0.6-0.6v-1c0-0.3-0.3-0.6-0.6-0.6s-0.6,0.3-0.6,0.6v1
		C-1003.3-425.4-1003-425.1-1002.7-425.1z"/>
	<path id="Shape_17_" class="st0" d="M-1024.7-443.6c0.1,0.1,0.3,0.2,0.4,0.2s0.3-0.1,0.4-0.2c0.2-0.2,0.2-0.6,0-0.8l-0.8-0.8
		c-0.2-0.2-0.6-0.2-0.8,0c-0.2,0.2-0.2,0.6,0,0.8L-1024.7-443.6z"/>
	<path id="Shape_18_" class="st0" d="M-1023.4-442.4c0-0.3-0.3-0.6-0.6-0.6h-2.4c-0.3,0-0.6,0.3-0.6,0.6s0.3,0.6,0.6,0.6h2.4
		C-1023.6-441.8-1023.4-442.1-1023.4-442.4z"/>
	<path id="Shape_19_" class="st0" d="M-1024.7-439.6l0.8-0.8c0.2-0.2,0.2-0.6,0-0.8c-0.2-0.2-0.6-0.2-0.8,0l-0.8,0.8
		c-0.2,0.2-0.2,0.6,0,0.8c0.1,0.1,0.3,0.2,0.4,0.2S-1024.8-439.5-1024.7-439.6z"/>
</g>
</svg>
