<?xml version="1.0" encoding="utf-8"?>
<!-- Generator: Adobe Illustrator 22.1.0, SVG Export Plug-In . SVG Version: 6.00 Build 0)  -->
<svg version="1.1" id="icon" xmlns="http://www.w3.org/2000/svg" xmlns:xlink="http://www.w3.org/1999/xlink" x="0px" y="0px"
	 viewBox="0 0 40 40" style="enable-background:new 0 0 40 40;" xml:space="preserve">
<style type="text/css">
	.st0{fill:#FFFFFF;}
</style>
<g id="dollar" transform="translate(1580.000000, 999.000000)">
	<path id="Shape" class="st0" d="M-1544.5-988.8h-3.6v-8.9c0-0.3-0.2-0.6-0.4-0.7c-0.2-0.2-0.6-0.2-0.8-0.1l-7.8,2.8l-2.9-2.9
		c-0.4-0.4-0.9-0.4-1.3,0l-6.7,6.7l-9.1,3.3c-1.7,0.4-2.8,1.9-2.8,3.5v22.5c0,2,1.7,3.6,3.7,3.6h31.8c2,0,3.7-1.6,3.7-3.6v-22.5
		C-1540.8-987.2-1542.5-988.8-1544.5-988.8z M-1549.9-996.5v7.7h-0.1l-5.7-5.6L-1549.9-996.5z M-1560.7-996.8l8,8h-16L-1560.7-996.8
		z M-1571.2-988.8h-0.3l0.4-0.1L-1571.2-988.8z M-1544.5-960.9h-31.8c-1,0-1.9-0.8-1.9-1.8v-22.5c0-1,0.9-1.8,1.9-1.8h31.8
		c1,0,1.9,0.8,1.9,1.8v4.5h-6.3c-2.5,0-4.5,2-4.5,4.5v0v4.4c0,2.5,2,4.6,4.5,4.6h6.3v4.5C-1542.6-961.7-1543.5-960.9-1544.5-960.9z
		 M-1542.6-978.8v9.8h-6.3c-1.5,0-2.7-1.2-2.7-2.7v-4.4c0-1.5,1.2-2.7,2.6-2.7h0H-1542.6z"/>
	<path id="Shape_1_" class="st0" d="M-1550-973.9c0,1.6,1.3,2.9,2.9,2.9c1.6,0,2.9-1.3,2.9-2.9c0-1.6-1.3-2.9-2.9-2.9
		C-1548.7-976.8-1550-975.5-1550-973.9z M-1547.1-975c0.6,0,1.1,0.5,1.1,1.1c0,0.6-0.5,1.1-1.1,1.1c-0.6,0-1.1-0.5-1.1-1.1
		C-1548.2-974.5-1547.7-975-1547.1-975z"/>
	<path id="Shape_2_" class="st0" d="M-1563.1-977.8c0.9,0,1.6,0.7,1.6,1.6c0,0.5,0.4,0.9,0.9,0.9s0.9-0.4,0.9-0.9
		c0-1.6-1.1-2.9-2.6-3.3v-0.9c0-0.5-0.4-0.9-0.9-0.9c-0.5,0-0.9,0.4-0.9,0.9v0.9c-1.6,0.5-2.6,2.1-2.4,3.8c0.3,1.7,1.7,2.9,3.4,2.9
		c0.9,0,1.6,0.7,1.6,1.6c0,0.9-0.7,1.6-1.6,1.6c-0.9,0-1.6-0.7-1.6-1.6c0-0.5-0.4-0.9-0.9-0.9s-0.9,0.4-0.9,0.9c0,1.5,1,2.8,2.4,3.3
		v0.8c0,0.5,0.4,0.9,0.9,0.9c0.5,0,0.9-0.4,0.9-0.9v-0.7c1.7-0.4,2.8-2,2.6-3.7c-0.2-1.7-1.7-3-3.4-3c-0.9,0-1.6-0.7-1.6-1.6
		C-1564.7-977.1-1564-977.8-1563.1-977.8L-1563.1-977.8z"/>
</g>
</svg>
