<?xml version="1.0" encoding="utf-8"?>
<!-- Generator: Adobe Illustrator 22.1.0, SVG Export Plug-In . SVG Version: 6.00 Build 0)  -->
<svg version="1.1" id="icon" xmlns="http://www.w3.org/2000/svg" xmlns:xlink="http://www.w3.org/1999/xlink" x="0px" y="0px"
	 viewBox="0 0 27 40" style="enable-background:new 0 0 27 40;" xml:space="preserve">
<style type="text/css">
	.st0{fill:#FFFFFF;}
</style>
<g id="drop" transform="translate(1205.000000, 999.000000)">
	<path id="Shape" class="st0" d="M-1179.8-977C-1179.8-977-1179.8-977.1-1179.8-977l-2.1-3.9c-0.2-0.4-0.8-0.6-1.2-0.4
		c-0.4,0.2-0.6,0.7-0.4,1.2l2,3.8c1.1,2.8,1,5.9-0.3,8.7s-3.6,4.9-6.5,6c-1.2,0.4-2.4,0.7-3.7,0.7c-1.3,0-2.5-0.3-3.7-0.7
		c-2.9-1.1-5.2-3.2-6.5-6s-1.4-5.8-0.3-8.7l10.5-19.9l7.1,13.5c0.2,0.4,0.8,0.6,1.2,0.4c0.4-0.2,0.6-0.7,0.4-1.2l-7.9-15
		c-0.2-0.3-0.5-0.5-0.8-0.5s-0.6,0.2-0.8,0.5l-11.3,21.4v0.1c-1.3,3.3-1.1,6.9,0.4,10c1.5,3.2,4.1,5.6,7.5,6.8
		c1.4,0.5,2.8,0.8,4.3,0.8l0,0l0,0c1.5,0,2.9-0.3,4.3-0.8c3.3-1.2,6-3.7,7.5-6.8C-1178.6-970.2-1178.5-973.7-1179.8-977z"/>
</g>
</svg>
