<?xml version="1.0" encoding="utf-8"?>
<!-- Generator: Adobe Illustrator 22.1.0, SVG Export Plug-In . SVG Version: 6.00 Build 0)  -->
<svg version="1.1" id="icon" xmlns="http://www.w3.org/2000/svg" xmlns:xlink="http://www.w3.org/1999/xlink" x="0px" y="0px"
	 viewBox="0 0 40 40" style="enable-background:new 0 0 40 40;" xml:space="preserve">
<style type="text/css">
	.st0{fill:#FFFFFF;}
</style>
<g id="euro" transform="translate(1580.000000, 931.000000)">
	<path id="Shape" class="st0" d="M-1544.3-920.8h-3.6v-8.9c0-0.3-0.2-0.6-0.4-0.7c-0.2-0.2-0.6-0.2-0.8-0.1l-7.8,2.8l-2.9-2.9
		c-0.4-0.4-0.9-0.4-1.3,0l-6.8,6.7l-9.1,3.3c-1.7,0.4-2.8,1.9-2.8,3.5v22.5c0,2,1.7,3.6,3.7,3.6h31.9c2,0,3.7-1.6,3.7-3.6v-22.5
		C-1540.6-919.2-1542.3-920.8-1544.3-920.8z M-1549.8-928.5v7.7h-0.1l-5.7-5.6L-1549.8-928.5z M-1560.6-928.8l8.1,8h-16.1
		L-1560.6-928.8z M-1571.2-920.8h-0.3l0.4-0.1L-1571.2-920.8z M-1544.3-892.9h-31.9c-1,0-1.9-0.8-1.9-1.8v-22.5c0-1,0.9-1.8,1.9-1.8
		h31.9c1,0,1.9,0.8,1.9,1.8v4.5h-6.4c-2.5,0-4.5,2-4.5,4.5v0v4.4c0,2.5,2,4.6,4.5,4.6h6.4v4.5
		C-1542.5-893.7-1543.3-892.9-1544.3-892.9z M-1542.5-910.8v9.8h-6.4c-1.5,0-2.7-1.2-2.7-2.7v-4.4c0-1.5,1.2-2.7,2.7-2.7h0H-1542.5z
		"/>
	<path id="Shape_1_" class="st0" d="M-1549.9-905.9c0,1.6,1.3,2.9,2.9,2.9s2.9-1.3,2.9-2.9c0-1.6-1.3-2.9-2.9-2.9
		S-1549.9-907.5-1549.9-905.9z M-1547-907c0.6,0,1.1,0.5,1.1,1.1c0,0.6-0.5,1.1-1.1,1.1c-0.6,0-1.1-0.5-1.1-1.1
		C-1548-906.5-1547.6-907-1547-907z"/>
	<path id="Shape_2_" class="st0" d="M-1560.1-910c0.5,0.2,1,0,1.2-0.5c0.2-0.5,0-1-0.5-1.2l0,0c-3.1-1.2-6.5,0.3-7.7,3.4
		c0,0.1-0.1,0.1-0.1,0.2h-0.9c-0.5,0-0.9,0.4-0.9,0.9s0.4,0.9,0.9,0.9h0.5c0,0.1,0,0.2,0,0.4h-0.5c-0.5,0-0.9,0.4-0.9,0.9
		c0,0.5,0.4,0.9,0.9,0.9h0.9c1.2,3.1,4.6,4.6,7.7,3.4l0,0c0.5-0.2,0.7-0.7,0.5-1.2c-0.2-0.5-0.7-0.7-1.2-0.5c-1.9,0.7-4,0-5-1.7h3.9
		c0.5,0,0.9-0.4,0.9-0.9c0-0.5-0.4-0.9-0.9-0.9h-4.5c0-0.1,0-0.2,0-0.4h5c0.5,0,0.9-0.4,0.9-0.9s-0.4-0.9-0.9-0.9h-4.6
		C-1564.3-909.9-1562.1-910.7-1560.1-910z"/>
</g>
</svg>
