<?xml version="1.0" encoding="utf-8"?>
<!-- Generator: Adobe Illustrator 22.1.0, SVG Export Plug-In . SVG Version: 6.00 Build 0)  -->
<svg version="1.1" id="icon" xmlns="http://www.w3.org/2000/svg" xmlns:xlink="http://www.w3.org/1999/xlink" x="0px" y="0px"
	 viewBox="0 0 40 40" style="enable-background:new 0 0 40 40;" xml:space="preserve">
<style type="text/css">
	.st0{fill:#FFFFFF;}
</style>
<g id="flash" transform="translate(335.000000, 299.000000)">
	<path id="Shape" class="st0" d="M-315-296.8c0.3,0,0.6-0.3,0.6-0.6v-1c0-0.3-0.3-0.6-0.6-0.6s-0.6,0.3-0.6,0.6v1
		C-315.6-297.1-315.3-296.8-315-296.8z"/>
	<path id="Shape_1_" class="st0" d="M-315-294.1c0.3,0,0.6-0.3,0.6-0.6v-0.3c0-0.3-0.3-0.6-0.6-0.6s-0.6,0.3-0.6,0.6v0.3
		C-315.6-294.4-315.3-294.1-315-294.1z"/>
	<path id="Shape_2_" class="st0" d="M-315-264.3c0.3,0,0.6-0.3,0.6-0.6v-1.4c0-0.3-0.3-0.6-0.6-0.6s-0.6,0.3-0.6,0.6v1.4
		C-315.6-264.5-315.3-264.3-315-264.3z"/>
	<path id="Shape_3_" class="st0" d="M-315-262.8c-0.3,0-0.6,0.3-0.6,0.6c0,0.9,0,1.8,0,2.6c0,0.3,0.2,0.6,0.6,0.6c0,0,0,0,0,0
		c0.3,0,0.6-0.2,0.6-0.6c0-0.9,0-1.8,0-2.7C-314.4-262.6-314.7-262.9-315-262.8z"/>
	<path id="Shape_4_" class="st0" d="M-324.9-294.9c0.3,0.4,0.5,0.9,0.7,1.3c0.1,0.2,0.3,0.3,0.5,0.3c0.1,0,0.2,0,0.3-0.1
		c0.3-0.2,0.4-0.5,0.2-0.8c-0.2-0.5-0.5-0.9-0.8-1.4c-0.1-0.2-0.2-0.4-0.4-0.6c-0.2-0.3-0.5-0.4-0.8-0.2c-0.3,0.2-0.4,0.5-0.2,0.8
		C-325.1-295.3-325-295.1-324.9-294.9z"/>
	<path id="Shape_5_" class="st0" d="M-323.1-291.8c0.4,0.6,0.7,1.2,1.1,1.8l0.1,0.2c0.1,0.2,0.3,0.3,0.5,0.3c0.1,0,0.2,0,0.3-0.1
		c0.3-0.2,0.4-0.5,0.2-0.8l-0.1-0.2c-0.3-0.6-0.7-1.2-1.1-1.9c-0.2-0.3-0.5-0.4-0.8-0.2C-323.2-292.5-323.3-292.1-323.1-291.8z"/>
	<path id="Shape_6_" class="st0" d="M-308.1-268.2c-0.2-0.3-0.5-0.4-0.8-0.2c-0.3,0.2-0.4,0.5-0.2,0.8l0.6,1
		c0.1,0.2,0.3,0.3,0.5,0.3c0.1,0,0.2,0,0.3-0.1c0.3-0.2,0.4-0.5,0.2-0.8L-308.1-268.2z"/>
	<path id="Shape_7_" class="st0" d="M-306-264.5c-0.2-0.3-0.5-0.4-0.8-0.2c-0.3,0.2-0.4,0.5-0.2,0.8l1.2,2.1
		c0.1,0.2,0.3,0.3,0.5,0.3c0.1,0,0.2,0,0.3-0.1c0.3-0.2,0.4-0.5,0.2-0.8L-306-264.5z"/>
	<path id="Shape_8_" class="st0" d="M-332.1-288.2c0.7,0.3,1.3,0.7,2,1.2c0.4,0.2,0.8,0.5,1.3,0.7c0.1,0.1,0.2,0.1,0.3,0.1
		c0.2,0,0.4-0.1,0.5-0.3c0.2-0.3,0.1-0.6-0.2-0.8c-0.4-0.2-0.8-0.5-1.3-0.7c-0.7-0.4-1.4-0.8-2.1-1.2c-0.3-0.1-0.6,0-0.8,0.2
		C-332.5-288.7-332.4-288.3-332.1-288.2z"/>
	<path id="Shape_9_" class="st0" d="M-327.1-285.3l0.8,0.5c0.1,0.1,0.2,0.1,0.3,0.1c0.2,0,0.4-0.1,0.5-0.3c0.2-0.3,0.1-0.6-0.2-0.8
		l-0.8-0.5c-0.3-0.2-0.6-0.1-0.8,0.2C-327.5-285.8-327.4-285.5-327.1-285.3z"/>
	<path id="Shape_10_" class="st0" d="M-301.4-271.8l-2.3-1.3c-0.3-0.2-0.6-0.1-0.8,0.2c-0.2,0.3-0.1,0.6,0.2,0.8l2.3,1.3
		c0.1,0.1,0.2,0.1,0.3,0.1c0.2,0,0.4-0.1,0.5-0.3C-301-271.3-301.1-271.7-301.4-271.8z"/>
	<path id="Shape_11_" class="st0" d="M-297.9-269.8l-1.1-0.6c-0.3-0.2-0.6-0.1-0.8,0.2c-0.2,0.3-0.1,0.6,0.2,0.8l1.1,0.6
		c0.1,0.1,0.2,0.1,0.3,0.1c0.2,0,0.4-0.1,0.5-0.3C-297.5-269.3-297.6-269.6-297.9-269.8z"/>
	<path id="Shape_12_" class="st0" d="M-333.7-279.6h-0.8c-0.3,0-0.6,0.3-0.6,0.6s0.3,0.6,0.6,0.6h0.8c0.3,0,0.6-0.3,0.6-0.6
		S-333.3-279.6-333.7-279.6z"/>
	<path id="Shape_13_" class="st0" d="M-331.8-278.4C-331.8-278.4-331.8-278.4-331.8-278.4c0.5,0,0.9,0,1.4,0c0.3,0,0.6-0.3,0.6-0.6
		c0-0.3-0.3-0.6-0.6-0.6c0,0,0,0,0,0c-0.5,0-1,0-1.4,0c-0.3,0-0.6,0.3-0.6,0.6C-332.4-278.7-332.2-278.4-331.8-278.4z"/>
	<path id="Shape_14_" class="st0" d="M-328.5-278.4c0.3,0,0.5,0,0.8,0c0,0,0,0,0,0c0.3,0,0.6-0.3,0.6-0.6c0-0.3-0.3-0.6-0.6-0.6
		c-0.3,0-0.5,0-0.8,0c0,0,0,0,0,0c-0.3,0-0.6,0.3-0.6,0.6C-329.1-278.7-328.9-278.4-328.5-278.4z"/>
	<path id="Shape_15_" class="st0" d="M-299.4-279c0-0.3-0.3-0.6-0.6-0.6c-0.8,0-1.5,0-2.3,0c-0.3,0-0.6,0.3-0.6,0.6
		c0,0.3,0.3,0.6,0.6,0.6c0,0,0,0,0,0c0.8,0,1.5,0,2.3,0C-299.7-278.4-299.4-278.7-299.4-279z"/>
	<path id="Shape_16_" class="st0" d="M-295.6-279.6c-0.8,0-1.7,0-2.6,0c-0.3,0-0.6,0.3-0.6,0.6c0,0.3,0.3,0.6,0.6,0.6c0,0,0,0,0,0
		c0.9,0,1.7,0,2.6,0c0.3,0,0.6-0.3,0.6-0.6C-295-279.3-295.3-279.6-295.6-279.6z"/>
	<path id="Shape_17_" class="st0" d="M-330.4-270.8c-0.3,0.2-0.6,0.4-0.9,0.5c-0.3,0.1-0.6,0.3-0.8,0.5c-0.3,0.2-0.3,0.5-0.2,0.8
		c0.1,0.2,0.3,0.3,0.5,0.3c0.1,0,0.2,0,0.3-0.1c0.2-0.1,0.5-0.3,0.7-0.4c0.3-0.2,0.7-0.4,1-0.6c0.3-0.2,0.3-0.6,0.1-0.8
		C-329.8-270.9-330.1-271-330.4-270.8z"/>
	<path id="Shape_18_" class="st0" d="M-326.3-273.1c-0.4,0.2-0.7,0.4-1.1,0.6c-0.4,0.2-0.8,0.5-1.3,0.7c-0.3,0.1-0.4,0.5-0.3,0.8
		c0.1,0.2,0.3,0.3,0.5,0.3c0.1,0,0.2,0,0.3-0.1c0.5-0.2,0.9-0.5,1.4-0.8c0.3-0.2,0.7-0.4,1-0.6c0.3-0.1,0.4-0.5,0.3-0.8
		C-325.7-273.2-326-273.3-326.3-273.1z"/>
	<path id="Shape_19_" class="st0" d="M-304-284.8c0.1,0,0.2,0,0.2-0.1c0.5-0.2,0.9-0.5,1.3-0.8c0.4-0.3,0.9-0.6,1.3-0.8
		c0.3-0.1,0.4-0.5,0.3-0.8c-0.1-0.3-0.5-0.4-0.8-0.3c-0.6,0.2-1,0.6-1.5,0.9c-0.4,0.3-0.8,0.5-1.2,0.7c-0.3,0.1-0.4,0.5-0.3,0.8
		C-304.4-284.9-304.2-284.8-304-284.8z"/>
	<path id="Shape_20_" class="st0" d="M-299.6-287.3c0.1,0,0.2,0,0.3-0.1l1.5-0.8c0.3-0.2,0.4-0.5,0.2-0.8c-0.2-0.3-0.5-0.4-0.8-0.2
		l-1.5,0.8c-0.3,0.2-0.4,0.5-0.2,0.8C-300-287.4-299.8-287.3-299.6-287.3z"/>
	<path id="Shape_21_" class="st0" d="M-323.1-265c-0.3-0.2-0.6,0-0.8,0.2c-0.4,0.8-0.9,1.6-1.3,2.3c-0.2,0.3-0.1,0.6,0.2,0.8
		c0.1,0.1,0.2,0.1,0.3,0.1c0.2,0,0.4-0.1,0.5-0.3c0.4-0.7,0.9-1.5,1.4-2.3C-322.7-264.5-322.8-264.9-323.1-265z"/>
	<path id="Shape_22_" class="st0" d="M-308.9-289.5c0.1,0.1,0.2,0.1,0.3,0.1c0.2,0,0.4-0.1,0.5-0.3l0.5-0.9c0.2-0.3,0.1-0.6-0.2-0.8
		s-0.6-0.1-0.8,0.2l-0.5,0.9C-309.3-290.1-309.2-289.7-308.9-289.5z"/>
	<path id="Shape_23_" class="st0" d="M-306.4-292.7c0.1-0.2,0.2-0.3,0.2-0.5c0.2-0.3,0.1-0.6-0.2-0.8c-0.3-0.2-0.6-0.1-0.8,0.2
		c-0.1,0.2-0.2,0.3-0.3,0.5c-0.1,0.3,0,0.6,0.3,0.8c0.1,0,0.2,0.1,0.3,0.1C-306.7-292.4-306.5-292.5-306.4-292.7z"/>
	<path id="Shape_24_" class="st0" d="M-305-296.3c-0.3-0.2-0.6-0.1-0.8,0.2c-0.2,0.3-0.3,0.5-0.4,0.8c-0.2,0.3-0.1,0.6,0.2,0.8
		c0.1,0.1,0.2,0.1,0.3,0.1c0.2,0,0.4-0.1,0.5-0.3c0.1-0.2,0.3-0.5,0.5-0.8C-304.6-295.8-304.7-296.2-305-296.3z"/>
	<path id="Shape_25_" class="st0" d="M-311.5-276c-0.3-0.2-0.6-0.2-0.8,0.1l-4.5,5.8l2.1-5.5c0.1-0.3,0.1-0.6-0.1-0.9
		c-0.2-0.3-0.5-0.4-0.8-0.4h-5.7l1.8-3.2c0.2-0.3,0.1-0.6-0.2-0.8c-0.3-0.2-0.6-0.1-0.8,0.2l-2,3.4c-0.2,0.3-0.2,0.7,0,1
		c0.2,0.3,0.5,0.5,0.9,0.5h5.8l-2.4,6.3c-0.2,0.5,0,1,0.4,1.2c0.2,0.1,0.3,0.1,0.5,0.1c0.3,0,0.6-0.1,0.8-0.4l5.2-6.7
		C-311.2-275.5-311.3-275.8-311.5-276z"/>
	<path id="Shape_26_" class="st0" d="M-308.3-281.8h-6.4l0.9-7c0.1-0.5-0.2-0.9-0.7-1.1c-0.5-0.2-0.9,0-1.2,0.4l-2.9,5
		c-0.2,0.3-0.1,0.6,0.2,0.8c0.3,0.2,0.6,0.1,0.8-0.2l2.5-4.2l-0.8,6.3c0,0.3,0,0.6,0.2,0.8c0.2,0.2,0.5,0.3,0.7,0.3h6.2l-1.1,1.4
		c-0.2,0.3-0.2,0.6,0.1,0.8c0.1,0.1,0.2,0.1,0.4,0.1c0.2,0,0.3-0.1,0.5-0.2l1.3-1.7c0.2-0.3,0.3-0.7,0.1-1
		C-307.6-281.6-307.9-281.8-308.3-281.8z"/>
</g>
</svg>
