<?xml version="1.0" encoding="utf-8"?>
<!-- Generator: Adobe Illustrator 22.1.0, SVG Export Plug-In . SVG Version: 6.00 Build 0)  -->
<svg version="1.1" id="icon" xmlns="http://www.w3.org/2000/svg" xmlns:xlink="http://www.w3.org/1999/xlink" x="0px" y="0px"
	 viewBox="0 0 45 59" style="enable-background:new 0 0 45 59;" xml:space="preserve">
<g id="inactive_lamp" transform="translate(1228.000000, 744.000000)">
	<path id="Shape_25_" d="M-1183.9-715.3c0-0.1,0.1-0.3,0.1-0.4c0-0.2,0.1-0.3,0.1-0.5c0-0.2,0.1-0.3,0.1-0.5
		c2.6-11.9-5-23.7-17-26.3c-11.9-2.6-23.7,5-26.3,17c-0.3,1.5-0.5,3.1-0.5,4.7c0,0.5,0,1,0.1,1.5c0,0.3,0,0.6,0.1,0.9
		c0.1,0.6,0.1,1.2,0.3,1.7c0,0,0,0.1,0,0.1c0.1,0.3,0.1,0.6,0.2,0.9c0,0.1,0.1,0.2,0.1,0.3c0,0.1,0,0.1,0,0.2c0,0.2,0.1,0.4,0.2,0.5
		c0,0.2,0.1,0.3,0.2,0.5l0,0c0,0.2,0.1,0.3,0.2,0.5c0.1,0.3,0.2,0.5,0.3,0.8c0,0.1,0.1,0.2,0.1,0.3v0c0.1,0.2,0.2,0.4,0.3,0.6l0,0
		c0.1,0.1,0.1,0.3,0.2,0.4c0,0.1,0.1,0.1,0.1,0.2c0.3,0.7,0.7,1.3,1,1.9l0.1,0.2c0.1,0.1,0.1,0.2,0.2,0.3l0.1,0.2
		c0.1,0.1,0.1,0.2,0.2,0.3c0.1,0.1,0.1,0.2,0.2,0.2c0,0,0,0.1,0.1,0.1c0,0,0.1,0.1,0.1,0.1c0,0.1,0.1,0.1,0.1,0.2
		c0.2,0.2,0.4,0.5,0.6,0.7l0,0c0,0.1,0.1,0.1,0.2,0.2c0.2,0.3,0.4,0.5,0.7,0.8l0,0c0.3,0.3,0.6,0.7,0.9,1s0.6,0.6,1,0.9
		c0.6,0.5,1.3,1,1.9,1.5c0.1,0.1,0.3,0.2,0.4,0.3l1.4,10.5c0,0.1,0,0.2,0.1,0.3c0.2,0.6,0.5,1.1,0.9,1.6v0
		c3.6,5.3,10.8,6.8,16.1,3.2c1.3-0.8,2.3-1.9,3.2-3.2v0c0.3-0.5,0.6-1,0.9-1.6c0-0.1,0.1-0.2,0.1-0.3l1.4-10.5
		c0.1,0,0.2-0.1,0.2-0.1C-1188.6-705.7-1185.4-710.1-1183.9-715.3C-1183.9-715.3-1183.9-715.3-1183.9-715.3z M-1205.2-741
		c10.9,0,19.8,8.9,19.8,19.8c0,0.4,0,0.8,0,1.3c0,0.4-0.1,0.7-0.1,1v0c0,0.1,0,0.1,0,0.2v0c0,0,0,0.1,0,0.1l0,0.1c0,0,0,0.1,0,0.1
		c0,0.2-0.1,0.4-0.1,0.6c0,0.1,0,0.1,0,0.2c0,0.1-0.1,0.3-0.1,0.5v0c0,0.1-0.1,0.3-0.1,0.4c0,0,0,0.1,0,0.1c0,0.2-0.1,0.4-0.1,0.6
		c-0.1,0.2-0.1,0.4-0.2,0.6c0,0.1-0.1,0.2-0.1,0.3c-0.1,0.3-0.2,0.6-0.3,0.8l0,0.1c-0.1,0.1-0.1,0.3-0.2,0.5c0,0,0,0.1-0.1,0.2
		c0,0,0,0,0,0.1c-0.1,0.3-0.2,0.5-0.4,0.8c-0.1,0.2-0.2,0.4-0.3,0.6l-0.1,0.3c-0.8,1.5-1.8,2.9-3,4.2c-1,1-2,1.9-3.2,2.7
		c-0.1,0-0.1,0-0.2,0h-9.9v-7.7l7.8-7.8c0.5-0.5,0.4-1.2,0-1.6c-0.5-0.4-1.2-0.4-1.6,0l-7.3,7.3l-7.3-7.3c-0.5-0.5-1.2-0.4-1.6,0
		c-0.4,0.5-0.4,1.2,0,1.6l7.8,7.8v7.7h-9.9c0,0-0.1,0-0.1,0c-1.3-0.9-2.4-1.9-3.4-3c-0.2-0.2-0.4-0.5-0.6-0.7c0-0.1-0.1-0.1-0.1-0.2
		c-0.2-0.2-0.4-0.5-0.5-0.7c-0.1-0.1-0.1-0.2-0.2-0.3c0,0,0,0,0,0c0,0,0,0,0-0.1c0,0,0-0.1-0.1-0.1c-0.3-0.4-0.5-0.8-0.8-1.2
		c-0.2-0.4-0.5-0.8-0.7-1.2c-0.1-0.2-0.2-0.3-0.2-0.5c0-0.1,0-0.1-0.1-0.1c0,0,0-0.1-0.1-0.1v0v0c-0.3-0.6-0.5-1.3-0.8-2
		c0-0.1,0-0.1-0.1-0.2c-0.1-0.3-0.2-0.7-0.3-1.1v0c0,0,0,0,0-0.1s0-0.1,0-0.1c0,0,0-0.1,0-0.1c-0.1-0.3-0.1-0.6-0.2-0.8
		c0,0,0,0,0-0.1c-0.1-0.3-0.1-0.6-0.1-0.9c0-0.1,0-0.2,0-0.2c0,0,0-0.1,0-0.1c0-0.3-0.1-0.7-0.1-1.1c0-0.4,0-0.8,0-1.3
		C-1225-732.2-1216.2-741-1205.2-741z"/>
</g>
</svg>
