<?xml version="1.0" encoding="utf-8"?>
<!-- Generator: Adobe Illustrator 22.1.0, SVG Export Plug-In . SVG Version: 6.00 Build 0)  -->
<svg version="1.1" id="icon" xmlns="http://www.w3.org/2000/svg" xmlns:xlink="http://www.w3.org/1999/xlink" x="0px" y="0px"
	 viewBox="0 0 45 59" style="enable-background:new 0 0 45 59;" xml:space="preserve">
<style type="text/css">
	.st0{fill:#A0815C;}
	.st1{fill:#544028;}
	.st2{fill:#64513A;}
	.st3{fill:#FFFFFF;}
</style>
<g id="lamp_off" transform="translate(1413.000000, 574.000000)">
	<path id="Shape" class="st0" d="M-1379.4-533.8h-22l0,0.4v0l0.7,4.8l0.8,6.2c0.2,0.5,0.5,1,0.8,1.4h17.4c0.3-0.5,0.6-0.9,0.8-1.4
		l0.8-6.2l0.7-4.8v0L-1379.4-533.8z"/>
	<path id="Shape_1_" class="st1" d="M-1390.4-516.3c3.5,0,6.7-1.7,8.7-4.7h-17.3C-1397.1-518.1-1393.8-516.3-1390.4-516.3z"/>
	<polygon id="Shape_2_" class="st2" points="-1400.8,-533.8 -1379.9,-533.8 -1379.9,-531.4 -1400.8,-531.4 	"/>
	<path id="Shape_26_" class="st3" d="M-1406.6-550.1c0.6,0,1.2-0.5,1.2-1.2c0-8.4,6.8-15.1,15.1-15.1c0.6,0,1.2-0.5,1.2-1.2
		c0-0.6-0.5-1.2-1.2-1.2c-9.6,0-17.4,7.8-17.4,17.5C-1407.8-550.6-1407.2-550.1-1406.6-550.1z"/>
	<path id="Shape_27_" d="M-1369.1-545.3c0-0.1,0.1-0.3,0.1-0.4c0-0.2,0.1-0.3,0.1-0.5c0-0.2,0.1-0.3,0.1-0.5
		c2.6-11.9-5-23.7-16.9-26.3c-11.9-2.6-23.6,5-26.2,17c-0.3,1.5-0.5,3.1-0.5,4.7c0,0.5,0,1,0.1,1.5c0,0.3,0,0.6,0.1,0.9
		c0.1,0.6,0.1,1.2,0.3,1.7c0,0,0,0.1,0,0.1c0.1,0.3,0.1,0.6,0.2,0.9c0,0.1,0.1,0.2,0.1,0.3c0,0.1,0,0.1,0,0.2c0,0.2,0.1,0.4,0.2,0.5
		c0,0.2,0.1,0.3,0.2,0.5l0,0c0,0.2,0.1,0.3,0.2,0.5c0.1,0.3,0.2,0.5,0.3,0.8c0,0.1,0.1,0.2,0.1,0.3v0c0.1,0.2,0.2,0.4,0.3,0.6l0,0
		c0.1,0.1,0.1,0.3,0.2,0.4c0,0.1,0.1,0.1,0.1,0.2c0.3,0.7,0.7,1.3,1,1.9l0.1,0.2c0.1,0.1,0.1,0.2,0.2,0.3l0.1,0.2
		c0.1,0.1,0.1,0.2,0.2,0.3c0.1,0.1,0.1,0.2,0.2,0.2c0,0,0,0.1,0.1,0.1c0,0,0.1,0.1,0.1,0.1c0,0.1,0.1,0.1,0.1,0.2
		c0.2,0.2,0.4,0.5,0.6,0.7l0,0c0,0.1,0.1,0.1,0.2,0.2c0.2,0.3,0.4,0.5,0.7,0.8l0,0c0.3,0.3,0.6,0.7,0.9,1c0.3,0.3,0.6,0.6,1,0.9
		c0.6,0.5,1.2,1,1.9,1.5c0.1,0.1,0.3,0.2,0.4,0.3l1.4,10.5c0,0.1,0,0.2,0.1,0.3c0.2,0.6,0.5,1.1,0.9,1.6v0
		c3.6,5.3,10.8,6.8,16.1,3.2c1.3-0.8,2.3-1.9,3.2-3.2v0c0.3-0.5,0.6-1,0.9-1.6c0-0.1,0.1-0.2,0.1-0.3l1.4-10.5
		c0.1,0,0.2-0.1,0.2-0.1C-1373.7-535.7-1370.6-540.1-1369.1-545.3C-1369.1-545.3-1369.1-545.3-1369.1-545.3z M-1390.4-571
		c10.9,0,19.7,8.9,19.7,19.8c0,0.4,0,0.8,0,1.3c0,0.4-0.1,0.7-0.1,1v0c0,0.1,0,0.1,0,0.2v0c0,0,0,0.1,0,0.1l0,0.1c0,0,0,0.1,0,0.1
		c0,0.2-0.1,0.4-0.1,0.6c0,0.1,0,0.1,0,0.2c0,0.1-0.1,0.3-0.1,0.5v0c0,0.1-0.1,0.3-0.1,0.4c0,0,0,0.1,0,0.1c0,0.2-0.1,0.4-0.1,0.6
		c-0.1,0.2-0.1,0.4-0.2,0.6c0,0.1-0.1,0.2-0.1,0.3c-0.1,0.3-0.2,0.6-0.3,0.8l0,0.1c-0.1,0.1-0.1,0.3-0.2,0.5c0,0,0,0.1-0.1,0.2
		c0,0,0,0,0,0.1c-0.1,0.3-0.2,0.5-0.4,0.8c-0.1,0.2-0.2,0.4-0.3,0.6l-0.1,0.3c-0.8,1.5-1.8,2.9-3,4.2c-1,1-2,1.9-3.2,2.7
		c-0.1,0-0.1,0-0.2,0h-9.8v-7.7l7.8-7.8c0.4-0.5,0.4-1.2,0-1.6c-0.4-0.4-1.2-0.4-1.6,0l-7.3,7.3l-7.3-7.3c-0.5-0.5-1.2-0.4-1.6,0
		c-0.4,0.5-0.4,1.2,0,1.6l7.8,7.8v7.7h-9.8c0,0-0.1,0-0.1,0c-1.2-0.9-2.4-1.9-3.4-3c-0.2-0.2-0.4-0.5-0.6-0.7c0-0.1-0.1-0.1-0.1-0.2
		c-0.2-0.2-0.4-0.5-0.5-0.7c-0.1-0.1-0.1-0.2-0.2-0.3c0,0,0,0,0,0c0,0,0,0,0-0.1c0,0,0-0.1-0.1-0.1c-0.3-0.4-0.5-0.8-0.8-1.2
		c-0.2-0.4-0.4-0.8-0.7-1.2c-0.1-0.2-0.2-0.3-0.2-0.5c0-0.1,0-0.1-0.1-0.1c0,0,0-0.1-0.1-0.1v0v0c-0.3-0.6-0.5-1.3-0.8-2
		c0-0.1,0-0.1-0.1-0.2c-0.1-0.3-0.2-0.7-0.3-1.1v0c0,0,0,0,0-0.1s0-0.1,0-0.1c0,0,0-0.1,0-0.1c-0.1-0.3-0.1-0.6-0.2-0.8
		c0,0,0,0,0-0.1c-0.1-0.3-0.1-0.6-0.1-0.9c0-0.1,0-0.2,0-0.2c0,0,0-0.1,0-0.1c0-0.3-0.1-0.7-0.1-1.1c0-0.4,0-0.8,0-1.3
		C-1410.1-562.2-1401.2-571-1390.4-571z M-1382-522.7c-0.1,0.2-0.2,0.4-0.3,0.6h-16.1c-0.1-0.2-0.2-0.4-0.3-0.6l-1.3-9.9h19.3
		L-1382-522.7z M-1396.5-519.8h12.3C-1387.7-516.7-1393-516.7-1396.5-519.8z"/>
</g>
</svg>
