<?xml version="1.0" encoding="utf-8"?>
<!-- Generator: Adobe Illustrator 22.1.0, SVG Export Plug-In . SVG Version: 6.00 Build 0)  -->
<svg version="1.1" id="icon" xmlns="http://www.w3.org/2000/svg" xmlns:xlink="http://www.w3.org/1999/xlink" x="0px" y="0px"
	 viewBox="0 0 68 70" style="enable-background:new 0 0 68 70;" xml:space="preserve">
<style type="text/css">
	.st0{fill:#FFF98E;}
	.st1{fill:#A0815C;}
	.st2{fill:#544028;}
	.st3{fill:#64513A;}
</style>
<g id="active_lamp" transform="translate(1228.000000, 574.000000)">
	<g id="bg">
		<path id="Shape" class="st0" d="M-1173.5-540.2c0,11.6-9.3,21-20.9,21c-11.5,0-20.9-9.4-20.9-21s9.3-21,20.9-21
			C-1182.8-561.2-1173.5-551.8-1173.5-540.2z"/>
		<path id="Shape_1_" class="st1" d="M-1183.4-522.8h-22l0,0.4v0l0.7,4.8l0.8,6.2c0.2,0.5,0.5,1,0.8,1.4h17.4
			c0.3-0.5,0.6-0.9,0.8-1.4l0.8-6.2l0.7-4.8v0L-1183.4-522.8z"/>
		<path id="Shape_2_" class="st2" d="M-1194.4-505.3c3.5,0,6.7-1.7,8.7-4.7h-17.3C-1201.1-507.1-1197.8-505.3-1194.4-505.3z"/>
		<polygon id="Shape_3_" class="st3" points="-1204.8,-522.8 -1183.9,-522.8 -1183.9,-520.4 -1204.8,-520.4 		"/>
	</g>
	<g id="light">
		<path id="Shape_27_" class="st0" d="M-1194.4-564.7c0.6,0,1.2-0.5,1.2-1.2v-7c0-0.6-0.5-1.2-1.2-1.2c-0.6,0-1.2,0.5-1.2,1.2v7
			C-1195.5-565.2-1195-564.7-1194.4-564.7z"/>
		<path id="Shape_28_" class="st0" d="M-1208.1-561.8c0.3,0.6,1,0.8,1.6,0.4c0.6-0.3,0.8-1,0.4-1.6c0,0,0,0,0,0l-3.5-6.1
			c-0.3-0.6-1-0.8-1.6-0.4c-0.6,0.3-0.8,1-0.4,1.6c0,0,0,0,0,0L-1208.1-561.8z"/>
		<path id="Shape_29_" class="st0" d="M-1223.1-555.5l6,3.5c0.6,0.3,1.3,0.1,1.6-0.4c0.3-0.6,0.1-1.3-0.4-1.6l-6-3.5
			c-0.6-0.3-1.3-0.1-1.6,0.4C-1223.8-556.6-1223.6-555.9-1223.1-555.5z"/>
		<path id="Shape_30_" class="st0" d="M-1218.7-540.2c0-0.6-0.5-1.2-1.2-1.2h-7c-0.6,0-1.2,0.5-1.2,1.2c0,0.6,0.5,1.2,1.2,1.2h7
			C-1219.2-539.1-1218.7-539.6-1218.7-540.2z"/>
		<path id="Shape_31_" class="st0" d="M-1217-528.4l-6,3.5c-0.6,0.3-0.8,1-0.4,1.6c0.3,0.6,1,0.8,1.6,0.4c0,0,0,0,0,0l6-3.5
			c0.6-0.3,0.8-1,0.4-1.6C-1215.8-528.6-1216.5-528.8-1217-528.4C-1217-528.4-1217-528.4-1217-528.4z"/>
		<path id="Shape_32_" class="st0" d="M-1165.6-524.9l-6-3.5c-0.6-0.3-1.3-0.1-1.6,0.4c-0.3,0.6-0.1,1.3,0.4,1.6c0,0,0,0,0,0l6,3.5
			c0.6,0.3,1.3,0.1,1.6-0.4C-1164.9-523.9-1165.1-524.6-1165.6-524.9z"/>
		<path id="Shape_33_" class="st0" d="M-1161.9-541.4h-7c-0.6,0-1.2,0.5-1.2,1.2c0,0.6,0.5,1.2,1.2,1.2h7c0.6,0,1.2-0.5,1.2-1.2
			C-1160.7-540.9-1161.2-541.4-1161.9-541.4z"/>
		<path id="Shape_34_" class="st0" d="M-1172.3-551.9c0.2,0,0.4-0.1,0.6-0.2l6-3.5c0.6-0.3,0.7-1,0.4-1.6c-0.3-0.6-1-0.7-1.6-0.4
			l-6,3.5c-0.6,0.3-0.7,1-0.4,1.6C-1173.1-552.1-1172.7-551.9-1172.3-551.9z"/>
		<path id="Shape_35_" class="st0" d="M-1182.2-561.4c0.6,0.3,1.3,0.1,1.6-0.4l3.5-6.1c0.3-0.6,0.1-1.3-0.4-1.6
			c-0.6-0.3-1.3-0.1-1.6,0.4c0,0,0,0,0,0l-3.5,6.1C-1182.9-562.4-1182.7-561.7-1182.2-561.4z"/>
	</g>
	<path id="Shape_37_" d="M-1173.1-534.3c0-0.1,0.1-0.3,0.1-0.4c0-0.2,0.1-0.3,0.1-0.5c0-0.2,0.1-0.3,0.1-0.5
		c2.6-11.9-5-23.7-16.9-26.3c-11.9-2.6-23.6,5-26.2,17c-0.3,1.5-0.5,3.1-0.5,4.7c0,0.5,0,1,0.1,1.5c0,0.3,0,0.6,0.1,0.9
		c0.1,0.6,0.1,1.2,0.3,1.7c0,0,0,0.1,0,0.1c0.1,0.3,0.1,0.6,0.2,0.9c0,0.1,0.1,0.2,0.1,0.3c0,0.1,0,0.1,0,0.2c0,0.2,0.1,0.4,0.2,0.5
		c0,0.2,0.1,0.3,0.2,0.5l0,0c0,0.2,0.1,0.3,0.2,0.5c0.1,0.3,0.2,0.5,0.3,0.8c0,0.1,0.1,0.2,0.1,0.3v0c0.1,0.2,0.2,0.4,0.3,0.6l0,0
		c0.1,0.1,0.1,0.3,0.2,0.4c0,0.1,0.1,0.1,0.1,0.2c0.3,0.7,0.7,1.3,1,1.9l0.1,0.2c0.1,0.1,0.1,0.2,0.2,0.3l0.1,0.2
		c0.1,0.1,0.1,0.2,0.2,0.3c0.1,0.1,0.1,0.2,0.2,0.2c0,0,0,0.1,0.1,0.1c0,0,0.1,0.1,0.1,0.1c0,0.1,0.1,0.1,0.1,0.2
		c0.2,0.2,0.4,0.5,0.6,0.7l0,0c0,0.1,0.1,0.1,0.2,0.2c0.2,0.3,0.4,0.5,0.7,0.8l0,0c0.3,0.3,0.6,0.7,0.9,1c0.3,0.3,0.6,0.6,1,0.9
		c0.6,0.5,1.2,1,1.9,1.5c0.1,0.1,0.3,0.2,0.4,0.3l1.4,10.5c0,0.1,0,0.2,0.1,0.3c0.2,0.6,0.5,1.1,0.9,1.6v0
		c3.6,5.3,10.8,6.8,16.1,3.2c1.3-0.8,2.3-1.9,3.2-3.2v0c0.3-0.5,0.6-1,0.9-1.6c0-0.1,0.1-0.2,0.1-0.3l1.4-10.5
		c0.1,0,0.2-0.1,0.2-0.1C-1177.7-524.7-1174.6-529.1-1173.1-534.3C-1173.1-534.3-1173.1-534.3-1173.1-534.3z M-1194.4-560
		c10.9,0,19.7,8.9,19.7,19.8c0,0.4,0,0.8,0,1.3c0,0.4-0.1,0.7-0.1,1v0c0,0.1,0,0.1,0,0.2v0c0,0,0,0.1,0,0.1l0,0.1c0,0,0,0.1,0,0.1
		c0,0.2-0.1,0.4-0.1,0.6c0,0.1,0,0.1,0,0.2c0,0.1-0.1,0.3-0.1,0.5v0c0,0.1-0.1,0.3-0.1,0.4c0,0,0,0.1,0,0.1c0,0.2-0.1,0.4-0.1,0.6
		c-0.1,0.2-0.1,0.4-0.2,0.6c0,0.1-0.1,0.2-0.1,0.3c-0.1,0.3-0.2,0.6-0.3,0.8l0,0.1c-0.1,0.1-0.1,0.3-0.2,0.5c0,0,0,0.1-0.1,0.2
		c0,0,0,0,0,0.1c-0.1,0.3-0.2,0.5-0.4,0.8c-0.1,0.2-0.2,0.4-0.3,0.6l-0.1,0.3c-0.8,1.5-1.8,2.9-3,4.2c-1,1-2,1.9-3.2,2.7
		c-0.1,0-0.1,0-0.2,0h-9.8v-7.7l7.8-7.8c0.4-0.5,0.4-1.2,0-1.6c-0.4-0.4-1.2-0.4-1.6,0l-7.3,7.3l-7.3-7.3c-0.5-0.5-1.2-0.4-1.6,0
		c-0.4,0.5-0.4,1.2,0,1.6l7.8,7.8v7.7h-9.8c0,0-0.1,0-0.1,0c-1.2-0.9-2.4-1.9-3.4-3c-0.2-0.2-0.4-0.5-0.6-0.7c0-0.1-0.1-0.1-0.1-0.2
		c-0.2-0.2-0.4-0.5-0.5-0.7c-0.1-0.1-0.1-0.2-0.2-0.3c0,0,0,0,0,0c0,0,0,0,0-0.1c0,0,0-0.1-0.1-0.1c-0.3-0.4-0.5-0.8-0.8-1.2
		c-0.2-0.4-0.4-0.8-0.7-1.2c-0.1-0.2-0.2-0.3-0.2-0.5c0-0.1,0-0.1-0.1-0.1c0,0,0-0.1-0.1-0.1v0v0c-0.3-0.6-0.5-1.3-0.8-2
		c0-0.1,0-0.1-0.1-0.2c-0.1-0.3-0.2-0.7-0.3-1.1v0c0,0,0,0,0-0.1s0-0.1,0-0.1c0,0,0-0.1,0-0.1c-0.1-0.3-0.1-0.6-0.2-0.8
		c0,0,0,0,0-0.1c-0.1-0.3-0.1-0.6-0.1-0.9c0-0.1,0-0.2,0-0.2c0,0,0-0.1,0-0.1c0-0.3-0.1-0.7-0.1-1.1c0-0.4,0-0.8,0-1.3
		C-1214.1-551.2-1205.2-560-1194.4-560z M-1186-511.7c-0.1,0.2-0.2,0.4-0.3,0.6h-16.1c-0.1-0.2-0.2-0.4-0.3-0.6l-1.3-9.9h19.3
		L-1186-511.7z M-1200.5-508.8h12.3C-1191.7-505.7-1197-505.7-1200.5-508.8z"/>
</g>
</svg>
