<?xml version="1.0" encoding="utf-8"?>
<!-- Generator: Adobe Illustrator 22.1.0, SVG Export Plug-In . SVG Version: 6.00 Build 0)  -->
<svg version="1.1" id="icon" xmlns="http://www.w3.org/2000/svg" xmlns:xlink="http://www.w3.org/1999/xlink" x="0px" y="0px"
	 viewBox="0 0 40 40" style="enable-background:new 0 0 40 40;" xml:space="preserve">
<style type="text/css">
	.st0{fill:#FFFFFF;}
</style>
<g id="on_off">
	<path id="Shape" class="st0" d="M31,21v-6.4c0-4.9-3-8.1-5.6-9.4c-0.7-0.4-1.5-0.7-2.3-0.9V3.9c0-2-1.5-3.6-3.3-3.6
		S16.5,2,16.5,3.9v0.5c-0.7,0.2-1.4,0.5-2.1,0.8c-2.9,1.4-5.8,4.9-5.8,9.4V21c0,4.6-1.5,8.5-4.4,11.6C4,32.8,3.9,33.1,4,33.3
		c0.1,0.3,0.3,0.4,0.5,0.5l6.3,1.2c1.2,0.2,2.2,0.4,3.3,0.5c1.2,2.4,3.4,4,5.9,4c2.5,0,4.7-1.6,5.9-4c1-0.1,2.1-0.3,3.2-0.5l6.3-1.2
		c0.2,0,0.4-0.2,0.5-0.5c0.1-0.3,0-0.5-0.2-0.7C32.6,29.3,31,25.4,31,21z M17.8,3.9c0-1.2,0.9-2.1,2-2.1s2,1,2,2.1V4
		c-1.3-0.2-2.7-0.2-4,0V3.9z M19.9,38.1c-1.7,0-3.2-0.9-4.2-2.4c1.5,0.2,2.9,0.2,4.2,0.2c1.4,0,2.8-0.1,4.2-0.2
		C23.2,37.2,21.6,38.1,19.9,38.1z M28.8,33.6c-1.3,0.2-2.4,0.4-3.5,0.6c0,0,0,0,0,0c-0.5,0.1-1,0.1-1.4,0.2c0,0,0,0,0,0
		c-0.4,0-0.8,0.1-1.2,0.1c-0.1,0-0.2,0-0.2,0c-0.4,0-0.7,0-1,0.1c-0.1,0-0.1,0-0.2,0c-0.8,0-1.6,0-2.5,0c-0.1,0-0.1,0-0.2,0
		c-0.3,0-0.7,0-1-0.1c-0.1,0-0.2,0-0.2,0c-0.4,0-0.8-0.1-1.2-0.1c0,0,0,0,0,0c-0.5,0-0.9-0.1-1.4-0.2c0,0,0,0,0,0
		c-1.1-0.2-2.3-0.3-3.5-0.6l-5.1-0.9c2.6-3.2,4-7.2,4-11.6v-6.4c0-3.9,2.6-6.9,5.1-8.1c0.7-0.4,1.5-0.6,2.3-0.8c0,0,0,0,0,0
		c1.6-0.4,3.4-0.4,5,0c0,0,0,0,0,0c0.9,0.2,1.7,0.5,2.5,0.9c2.4,1.2,4.9,4.2,4.9,8.1V21c0,4.3,1.4,8.3,4.2,11.6L28.8,33.6z"/>
	<path id="Shape_1_" class="st0" d="M24,8.4c-2.6-1.3-5.7-1.3-8.2,0c-1.4,0.7-3.9,2.8-3.9,6.2c0,0.4,0.3,0.7,0.7,0.7c0,0,0,0,0,0
		c0.4,0,0.7-0.3,0.7-0.7c0-2.6,2-4.3,3.2-4.9c2.2-1.1,4.9-1.1,7.1,0c0.3,0.2,0.7,0,0.9-0.4C24.5,9,24.4,8.6,24,8.4z"/>
	<path id="Shape_2_" class="st0" d="M3.2,14.8c-0.3-0.3-0.7-0.3-0.9,0C0.8,16.4,0,18.4,0,20.7s0.8,4.3,2.2,5.8
		c0.1,0.1,0.3,0.2,0.5,0.2s0.3-0.1,0.5-0.2c0.3-0.3,0.3-0.7,0-1c-1.2-1.3-1.8-3-1.8-4.8s0.7-3.5,1.8-4.8C3.4,15.5,3.4,15.1,3.2,14.8
		z"/>
	<path id="Shape_3_" class="st0" d="M5.5,25.1c0.2,0,0.3-0.1,0.5-0.2c0.3-0.3,0.3-0.7,0-1c-1.7-1.8-1.7-4.8,0-6.6
		c0.3-0.3,0.3-0.7,0-1C5.7,16,5.3,16,5,16.2c-2.2,2.4-2.2,6.2,0,8.6C5.1,25,5.3,25.1,5.5,25.1z"/>
	<path id="Shape_4_" class="st0" d="M37.4,14.8c-0.3-0.3-0.7-0.3-0.9,0c-0.3,0.3-0.3,0.7,0,1c1.2,1.3,1.8,3,1.8,4.8
		s-0.7,3.5-1.8,4.8c-0.3,0.3-0.3,0.7,0,1c0.1,0.1,0.3,0.2,0.5,0.2c0.2,0,0.3-0.1,0.5-0.2c1.4-1.6,2.2-3.6,2.2-5.8
		S38.8,16.4,37.4,14.8z"/>
	<path id="Shape_5_" class="st0" d="M33.7,16.2c-0.3,0.3-0.3,0.7,0,1c1.7,1.8,1.7,4.8,0,6.6c-0.3,0.3-0.3,0.7,0,1
		c0.1,0.1,0.3,0.2,0.5,0.2c0.2,0,0.3-0.1,0.5-0.2c2.2-2.4,2.2-6.2,0-8.6C34.3,16,33.9,16,33.7,16.2z"/>
</g>
</svg>
