<?xml version="1.0" encoding="utf-8"?>
<!-- Generator: Adobe Illustrator 22.1.0, SVG Export Plug-In . SVG Version: 6.00 Build 0)  -->
<svg version="1.1" id="icon" xmlns="http://www.w3.org/2000/svg" xmlns:xlink="http://www.w3.org/1999/xlink" x="0px" y="0px"
	 viewBox="0 0 40 40" style="enable-background:new 0 0 40 40;" xml:space="preserve">
<style type="text/css">
	.st0{fill:#FFFFFF;}
</style>
<g id="on_off" transform="translate(105.000000, 149.000000)">
	<path id="Shape" class="st0" d="M-85-149c-11,0-20,9-20,20s9,20,20,20s20-9,20-20S-74-149-85-149z M-85-111.1
		c-9.9,0-17.9-8-17.9-17.9s8-17.9,17.9-17.9s17.9,8,17.9,17.9S-75.1-111.1-85-111.1z"/>
	<path id="Shape_1_" class="st0" d="M-78.5-140.3c-0.5-0.3-1.1-0.1-1.4,0.4c-0.3,0.5-0.1,1.1,0.4,1.4c3.3,1.9,5.3,5.4,5.3,9.1
		c0,5.8-4.8,10.5-10.7,10.5c-5.9,0-10.7-4.7-10.7-10.5c0-3.7,2-7.2,5.3-9.1c0.5-0.3,0.7-0.9,0.4-1.4c-0.3-0.5-0.9-0.7-1.4-0.4
		c-3.9,2.3-6.3,6.4-6.3,10.9c0,6.9,5.7,12.6,12.8,12.6c7.1,0,12.8-5.7,12.8-12.6C-72.2-133.9-74.6-138.1-78.5-140.3z"/>
	<path id="Shape_2_" class="st0" d="M-85-143.1c-0.5,0-1,0.5-1,1v13c0,0.6,0.4,1,1,1s1-0.5,1-1v-13C-84-142.6-84.5-143.1-85-143.1z"
		/>
</g>
</svg>
