<?xml version="1.0" encoding="utf-8"?>
<!-- Generator: Adobe Illustrator 22.1.0, SVG Export Plug-In . SVG Version: 6.00 Build 0)  -->
<svg version="1.1" id="icon" xmlns="http://www.w3.org/2000/svg" xmlns:xlink="http://www.w3.org/1999/xlink" x="0px" y="0px"
	 viewBox="0 0 54 40" style="enable-background:new 0 0 54 40;" xml:space="preserve">
<style type="text/css">
	.st0{fill:#13CE66;}
</style>
<g id="wifi" transform="translate(1698.000000, 402.000000)">
	<path id="Shape" class="st0" d="M-1644.7-390.2c-7.1-7.1-16.5-11-26.5-11s-19.4,3.9-26.5,11c-0.4,0.4-0.4,1,0,1.4
		c0.4,0.4,1,0.4,1.4,0c6.7-6.7,15.6-10.4,25.1-10.4s18.4,3.7,25.1,10.4c0.2,0.2,0.4,0.3,0.7,0.3s0.5-0.1,0.7-0.3
		C-1644.3-389.2-1644.3-389.8-1644.7-390.2z"/>
	<path id="Shape_1_" class="st0" d="M-1692-384.4c-0.4,0.4-0.4,1,0,1.4c0.2,0.2,0.4,0.3,0.7,0.3s0.5-0.1,0.7-0.3
		c10.7-10.7,28.1-10.7,38.8,0c0.4,0.4,1,0.4,1.4,0s0.4-1,0-1.4C-1661.9-395.9-1680.5-395.9-1692-384.4z"/>
	<path id="Shape_2_" class="st0" d="M-1671.2-384.9c-5.7,0-11,2.2-15,6.2c-0.4,0.4-0.4,1,0,1.4c0.4,0.4,1,0.4,1.4,0
		c3.6-3.6,8.5-5.6,13.6-5.6c5.2,0,10,2,13.6,5.6c0.2,0.2,0.4,0.3,0.7,0.3s0.5-0.1,0.7-0.3c0.4-0.4,0.4-1,0-1.4
		C-1660.2-382.7-1665.5-384.9-1671.2-384.9z"/>
	<path id="Shape_3_" class="st0" d="M-1671.2-375.7c-3.5,0-6.4,2.9-6.4,6.4s2.9,6.4,6.4,6.4c3.5,0,6.4-2.9,6.4-6.4
		S-1667.7-375.7-1671.2-375.7z M-1671.2-364.9c-2.4,0-4.4-2-4.4-4.4c0-2.4,2-4.4,4.4-4.4c2.4,0,4.4,2,4.4,4.4
		C-1666.8-366.9-1668.8-364.9-1671.2-364.9z"/>
</g>
</svg>
