<?xml version="1.0" encoding="utf-8"?>
<!-- Generator: Adobe Illustrator 22.1.0, SVG Export Plug-In . SVG Version: 6.00 Build 0)  -->
<svg version="1.1" id="icon" xmlns="http://www.w3.org/2000/svg" xmlns:xlink="http://www.w3.org/1999/xlink" x="0px" y="0px"
	 viewBox="0 0 37 40" style="enable-background:new 0 0 37 40;" xml:space="preserve">
<style type="text/css">
	.st0{fill:#ff5722;}
</style>
<g id="server" transform="translate(1337.000000, 177.000000)">
	<circle id="Oval" class="st0" cx="-1333" cy="-155.9" r="1"/>
	<circle id="Oval_1_" class="st0" cx="-1333" cy="-151.5" r="1"/>
	<circle id="Oval_2_" class="st0" cx="-1330.8" cy="-153.7" r="1"/>
	<circle id="Oval_3_" class="st0" cx="-1326.5" cy="-153.7" r="1"/>
	<circle id="Oval_4_" class="st0" cx="-1328.6" cy="-151.5" r="1"/>
	<circle id="Oval_5_" class="st0" cx="-1324.3" cy="-151.5" r="1"/>
	<circle id="Oval_6_" class="st0" cx="-1322.1" cy="-153.7" r="1"/>
	<circle id="Oval_7_" class="st0" cx="-1317.7" cy="-153.7" r="1"/>
	<circle id="Oval_8_" class="st0" cx="-1319.9" cy="-151.5" r="1"/>
	<circle id="Oval_9_" class="st0" cx="-1315.5" cy="-151.5" r="1"/>
	<circle id="Oval_10_" class="st0" cx="-1313.4" cy="-153.7" r="1"/>
	<circle id="Oval_11_" class="st0" cx="-1309" cy="-153.7" r="1"/>
	<circle id="Oval_12_" class="st0" cx="-1311.2" cy="-151.5" r="1"/>
	<circle id="Oval_13_" class="st0" cx="-1306.8" cy="-151.5" r="1"/>
	<circle id="Oval_14_" class="st0" cx="-1304.6" cy="-153.7" r="1"/>
	<circle id="Oval_15_" class="st0" cx="-1302.5" cy="-155.9" r="1"/>
	<circle id="Oval_16_" class="st0" cx="-1326.5" cy="-149.4" r="1"/>
	<circle id="Oval_17_" class="st0" cx="-1322.1" cy="-149.4" r="1"/>
	<circle id="Oval_18_" class="st0" cx="-1317.7" cy="-149.4" r="1"/>
	<circle id="Oval_19_" class="st0" cx="-1313.4" cy="-149.4" r="1"/>
	<circle id="Oval_20_" class="st0" cx="-1309" cy="-149.4" r="1"/>
	<path id="Shape" class="st0" d="M-1300.3-170.7C-1300.3-170.7-1300.3-170.7-1300.3-170.7C-1300.4-170.8-1300.4-170.8-1300.3-170.7
		c-0.9-3.6-8.6-6.3-18.1-6.3s-17.2,2.6-18.1,6.2c0,0,0,0,0,0c0,0,0,0,0,0.1c0,0.1-0.1,0.2-0.1,0.3v0.4v17.1v0.4v9.1
		c0,0.1,0,0.2,0.1,0.3c0.9,3.6,8.5,6.2,18.1,6.2c9.5,0,17.2-2.6,18.1-6.2c0.1-0.1,0.1-0.2,0.1-0.4v-9.1v-0.4v-17.1v-0.4
		C-1300.3-170.5-1300.3-170.6-1300.3-170.7z M-1304.2-149.9c-0.1-0.1-0.3-0.2-0.5-0.2c-0.4,0-0.7,0.3-0.7,0.7c0,0,0,0,0,0
		c-1.5,0.6-3.3,1.1-5.5,1.5c-0.1-0.1-0.2-0.1-0.3-0.1c-0.2,0-0.4,0.1-0.5,0.2c-1,0.1-2,0.3-3.1,0.4c-0.1-0.3-0.3-0.6-0.7-0.6
		c-0.4,0-0.7,0.3-0.7,0.7c-0.7,0-1.4,0.1-2.2,0.1c-0.2,0-0.5,0-0.7,0c0-0.4-0.3-0.7-0.7-0.7c-0.4,0-0.7,0.3-0.7,0.7
		c-1,0-2-0.1-3-0.2c-0.1-0.3-0.4-0.5-0.7-0.5c-0.2,0-0.4,0.1-0.6,0.3c-2.1-0.3-3.9-0.7-5.5-1.2c0.1-0.1,0.2-0.3,0.2-0.5
		c0-0.4-0.3-0.7-0.7-0.7c-0.4,0-0.7,0.3-0.7,0.7c0,0,0,0,0,0c-2.3-1-3.6-2.2-3.6-3.3c0-0.1,0-0.2,0-0.2c0,0,0-0.1,0-0.1
		c0.4,0,0.7-0.3,0.7-0.7c0-0.4-0.3-0.7-0.7-0.7v-2.9c0.4,0,0.7-0.3,0.7-0.7c1.3,0.9,3,1.7,5.1,2.2c0.1,0.3,0.3,0.6,0.7,0.6
		c0.2,0,0.4-0.1,0.6-0.3c2.8,0.6,6.1,1,9.6,1c4.1,0,7.9-0.5,10.9-1.3c0.1,0.3,0.3,0.6,0.7,0.6c0.4,0,0.7-0.3,0.7-0.7
		c0-0.1,0-0.2-0.1-0.3c1.9-0.7,3.4-1.5,4.4-2.4v2.7v2.7c0,0.1,0,0.2,0,0.3c0,0.1,0,0.2,0,0.2c0,0.2-0.1,0.4-0.2,0.7
		c-0.1-0.2-0.3-0.3-0.6-0.3c-0.4,0-0.7,0.3-0.7,0.7c0,0.3,0.2,0.5,0.4,0.7C-1303.1-150.5-1303.6-150.2-1304.2-149.9z M-1301.7-161.2
		C-1301.7-161.2-1301.7-161.1-1301.7-161.2c-0.4,2.6-7.2,5.3-16.7,5.3s-16.3-2.7-16.7-5.2c0,0,0,0,0-0.1v-6.2
		c2.5,2.3,8.2,4.2,16.7,4.2s14.2-1.9,16.7-4.2V-161.2z M-1318.5-175.5c9.5,0,16.3,2.7,16.7,5.2l0,0c0,0.1,0,0.2,0,0.2
		c0,2.6-6.9,5.5-16.7,5.5c-9.9,0-16.7-2.9-16.7-5.5c0-0.1,0-0.2,0-0.2l0,0C-1334.7-172.9-1327.9-175.5-1318.5-175.5z M-1301.8-143.7
		c-0.4,2.5-7.2,5.2-16.7,5.2s-16.3-2.7-16.7-5.2c0,0,0-0.1,0-0.1v-6.1c2.5,2.3,8.2,4.2,16.7,4.2s14.2-1.9,16.7-4.2L-1301.8-143.7
		C-1301.7-143.7-1301.7-143.7-1301.8-143.7z"/>
</g>
</svg>
