<?xml version="1.0" encoding="utf-8"?>
<!-- Generator: Adobe Illustrator 22.1.0, SVG Export Plug-In . SVG Version: 6.00 Build 0)  -->
<svg version="1.1" id="icon" xmlns="http://www.w3.org/2000/svg" xmlns:xlink="http://www.w3.org/1999/xlink" x="0px" y="0px"
	 viewBox="0 0 38 40" style="enable-background:new 0 0 38 40;" xml:space="preserve">
<style type="text/css">
	.st0{fill:#FFFFFF;}
</style>
<g id="thermometer" transform="translate(1200.000000, 931.000000)">
	<path id="Shape" class="st0" d="M-1184.6-902.4v-18.8c0-0.5-0.4-0.8-0.8-0.8s-0.8,0.4-0.8,0.8v18.8c-1.7,0.4-2.9,1.9-2.9,3.7
		c0,2.1,1.7,3.8,3.8,3.8c2.1,0,3.8-1.7,3.8-3.8C-1181.7-900.5-1182.9-902-1184.6-902.4z M-1185.5-896.7c-1.2,0-2.1-0.9-2.1-2.1
		c0-1.2,0.9-2.1,2.1-2.1s2.1,0.9,2.1,2.1C-1183.4-897.6-1184.3-896.7-1185.5-896.7z"/>
	<path id="Shape_1_" class="st0" d="M-1180.7-905v-21.1c0-2.6-2.1-4.7-4.8-4.7s-4.8,2.1-4.8,4.7v21.1c-2.5,2-3.6,5.4-2.6,8.5
		c0.5,1.6,1.5,2.9,2.8,3.9c1.3,1,2.9,1.5,4.6,1.5s3.3-0.5,4.6-1.5s2.3-2.3,2.8-3.9C-1177.1-899.7-1178.2-903-1180.7-905z
		 M-1179.7-897c-0.8,2.5-3.1,4.2-5.8,4.2c-2.7,0-5-1.7-5.8-4.2c-0.8-2.6,0.2-5.4,2.3-6.9c0.2-0.2,0.4-0.4,0.4-0.7v-21.6
		c0-1.6,1.4-3,3.1-3c1.7,0,3.1,1.4,3.1,3v21.6c0,0.3,0.1,0.5,0.4,0.7C-1179.9-902.4-1178.9-899.6-1179.7-897z"/>
	<path id="Shape_2_" class="st0" d="M-1163.7-920.1h-1c-1.1,0-2.2-0.5-2.7-1.3c0,0,0,0,0,0c-0.5-0.7-0.5-1.7,0-2.5l0,0
		c0.5-0.8,1.5-1.3,2.6-1.3h1c0.5,0,0.8-0.4,0.8-0.8c0-0.5-0.4-0.8-0.8-0.8h-1c-1.7,0-3.2,0.8-4,2.1c-0.9,1.4-0.9,3.1,0,4.4
		c0.8,1.3,2.4,2.1,4.1,2.1h1c0.5,0,0.8-0.4,0.8-0.8C-1162.9-919.7-1163.3-920.1-1163.7-920.1z"/>
	<path id="Shape_3_" class="st0" d="M-1173.6-930.9c-1.6,0-2.8,1.3-2.8,2.8v1c0,1.6,1.3,2.8,2.8,2.8c1.6,0,2.8-1.3,2.8-2.8v-1
		C-1170.7-929.6-1172-930.9-1173.6-930.9z M-1172.4-927.1c0,0.6-0.5,1.1-1.2,1.1c-0.6,0-1.2-0.5-1.2-1.1v-1c0-0.6,0.5-1.1,1.2-1.1
		c0.6,0,1.2,0.5,1.2,1.1V-927.1z"/>
	<path id="Shape_4_" class="st0" d="M-1194.2-905.5h-4.9c-0.5,0-0.8,0.4-0.8,0.8c0,0.5,0.4,0.8,0.8,0.8h4.9c0.5,0,0.8-0.4,0.8-0.8
		C-1193.4-905.1-1193.8-905.5-1194.2-905.5z"/>
	<path id="Shape_5_" class="st0" d="M-1194.2-917.2h-3c-0.5,0-0.8,0.4-0.8,0.8c0,0.5,0.4,0.8,0.8,0.8h3c0.5,0,0.8-0.4,0.8-0.8
		C-1193.4-916.8-1193.8-917.2-1194.2-917.2z"/>
	<path id="Shape_6_" class="st0" d="M-1194.2-921.1h-4.9c-0.5,0-0.8,0.4-0.8,0.8c0,0.5,0.4,0.8,0.8,0.8h4.9c0.5,0,0.8-0.4,0.8-0.8
		C-1193.4-920.7-1193.8-921.1-1194.2-921.1z"/>
	<path id="Shape_7_" class="st0" d="M-1194.2-925h-3c-0.5,0-0.8,0.4-0.8,0.8c0,0.5,0.4,0.8,0.8,0.8h3c0.5,0,0.8-0.4,0.8-0.8
		C-1193.4-924.7-1193.8-925-1194.2-925z"/>
	<path id="Shape_8_" class="st0" d="M-1194.2-928.9h-4.9c-0.5,0-0.8,0.4-0.8,0.8c0,0.5,0.4,0.8,0.8,0.8h4.9c0.5,0,0.8-0.4,0.8-0.8
		C-1193.4-928.5-1193.8-928.9-1194.2-928.9z"/>
	<path id="Shape_9_" class="st0" d="M-1194.2-909.3h-3c-0.5,0-0.8,0.4-0.8,0.8s0.4,0.8,0.8,0.8h3c0.5,0,0.8-0.4,0.8-0.8
		S-1193.8-909.3-1194.2-909.3z"/>
	<path id="Shape_10_" class="st0" d="M-1194.2-913.3h-4.9c-0.5,0-0.8,0.4-0.8,0.8c0,0.5,0.4,0.8,0.8,0.8h4.9c0.5,0,0.8-0.4,0.8-0.8
		C-1193.4-912.9-1193.8-913.3-1194.2-913.3z"/>
</g>
</svg>
