<?xml version="1.0" encoding="utf-8"?>
<!-- Generator: Adobe Illustrator 22.1.0, SVG Export Plug-In . SVG Version: 6.00 Build 0)  -->
<svg version="1.1" id="icon" xmlns="http://www.w3.org/2000/svg" xmlns:xlink="http://www.w3.org/1999/xlink" x="0px" y="0px"
	 viewBox="0 0 50 50" style="enable-background:new 0 0 50 50;" xml:space="preserve">
<style type="text/css">
	.st0{fill:#FFFFFF;}
</style>
<g id="clock" transform="translate(425.000000, 7.000000)">
	<path id="Shape" class="st0" d="M-400-7c-13.8,0-25,11.2-25,25s11.2,25,25,25s25-11.2,25-25S-386.2-7-400-7z M-400,41.3
		c-12.9,0-23.3-10.5-23.3-23.3S-412.9-5.3-400-5.3s23.3,10.5,23.3,23.3S-387.1,41.3-400,41.3z"/>
	<path id="Shape_1_" class="st0" d="M-399.2,14.7V6.2c0-0.5-0.4-0.8-0.8-0.8s-0.8,0.4-0.8,0.8v8.5c-1.2,0.3-2.1,1.2-2.4,2.4h-6
		c-0.5,0-0.8,0.4-0.8,0.8c0,0.5,0.4,0.8,0.8,0.8h6c0.4,1.4,1.7,2.5,3.2,2.5c1.8,0,3.3-1.5,3.3-3.3
		C-396.7,16.4-397.7,15.1-399.2,14.7z M-400,19.6c-0.9,0-1.7-0.7-1.7-1.7s0.7-1.7,1.7-1.7s1.7,0.7,1.7,1.7S-399.1,19.6-400,19.6z"/>
	<path id="Shape_2_" class="st0" d="M-400,1.2c0.5,0,0.8-0.4,0.8-0.8v-0.8c0-0.5-0.4-0.8-0.8-0.8s-0.8,0.4-0.8,0.8v0.8
		C-400.8,0.9-400.5,1.2-400,1.2z"/>
	<path id="Shape_3_" class="st0" d="M-400,34.6c-0.5,0-0.8,0.4-0.8,0.8v0.8c0,0.5,0.4,0.8,0.8,0.8s0.8-0.4,0.8-0.8v-0.8
		C-399.2,34.9-399.5,34.6-400,34.6z"/>
	<path id="Shape_4_" class="st0" d="M-381.7,17.1h-0.8c-0.5,0-0.8,0.4-0.8,0.8c0,0.5,0.4,0.8,0.8,0.8h0.8c0.5,0,0.8-0.4,0.8-0.8
		C-380.8,17.4-381.2,17.1-381.7,17.1z"/>
	<path id="Shape_5_" class="st0" d="M-417.5,17.1h-0.8c-0.5,0-0.8,0.4-0.8,0.8c0,0.5,0.4,0.8,0.8,0.8h0.8c0.5,0,0.8-0.4,0.8-0.8
		C-416.7,17.4-417,17.1-417.5,17.1z"/>
	<path id="Shape_6_" class="st0" d="M-387.6,4.3l-0.6,0.6c-0.3,0.3-0.3,0.9,0,1.2c0.2,0.2,0.4,0.2,0.6,0.2c0.2,0,0.4-0.1,0.6-0.2
		l0.6-0.6c0.3-0.3,0.3-0.9,0-1.2C-386.8,4-387.3,4-387.6,4.3z"/>
	<path id="Shape_7_" class="st0" d="M-413,29.7l-0.6,0.6c-0.3,0.3-0.3,0.9,0,1.2c0.2,0.2,0.4,0.2,0.6,0.2c0.2,0,0.4-0.1,0.6-0.2
		l0.6-0.6c0.3-0.3,0.3-0.9,0-1.2S-412.6,29.4-413,29.7z"/>
	<path id="Shape_8_" class="st0" d="M-387,29.7c-0.3-0.3-0.9-0.3-1.2,0s-0.3,0.9,0,1.2l0.6,0.6c0.2,0.2,0.4,0.2,0.6,0.2
		c0.2,0,0.4-0.1,0.6-0.2c0.3-0.3,0.3-0.9,0-1.2L-387,29.7z"/>
	<path id="Shape_9_" class="st0" d="M-412.4,4.3c-0.3-0.3-0.9-0.3-1.2,0c-0.3,0.3-0.3,0.9,0,1.2l0.6,0.6c0.2,0.2,0.4,0.2,0.6,0.2
		c0.2,0,0.4-0.1,0.6-0.2c0.3-0.3,0.3-0.9,0-1.2L-412.4,4.3z"/>
</g>
</svg>
