<?xml version="1.0" encoding="utf-8"?>
<!-- Generator: Adobe Illustrator 22.1.0, SVG Export Plug-In . SVG Version: 6.00 Build 0)  -->
<svg version="1.1" id="logo" xmlns="http://www.w3.org/2000/svg" xmlns:xlink="http://www.w3.org/1999/xlink" x="0px" y="0px"
	 viewBox="0 0 238 60" style="enable-background:new 0 0 238 60;" xml:space="preserve">
<style type="text/css">
	.st0{fill:#FFFFFF;}
	.st1{fill:#FF5521;}
</style>
<g id="point" transform="translate(64.000000, 0.000000)">
	<path id="Shape" class="st0" d="M6.2,4.7h19.1c12.7,0,19.1,5.8,19.1,17.4c0.4,4.9-1.4,9.8-4.8,13.4c-4,3.2-9,4.7-14,4.4h-9.5v18.7
		H6.2V4.7z M24.4,31.6c2.7,0.2,5.4-0.6,7.6-2.3c1.8-1.9,2.7-4.4,2.5-7c0.2-2.6-0.7-5.2-2.6-7c-2.2-1.7-5-2.5-7.8-2.3h-8.1v18.6H24.4
		z"/>
	<path id="Shape_1_" class="st0" d="M56.5,56.5c-2.9-1.7-5.3-4.2-6.8-7.2c-1.6-3.1-2.4-6.5-2.4-10c0-3.5,0.8-6.9,2.4-10.1
		c1.5-3,3.9-5.6,6.8-7.3c6.6-3.6,14.5-3.6,21,0c2.9,1.7,5.3,4.3,6.8,7.3c1.6,3.1,2.4,6.6,2.4,10.1c0,3.5-0.8,6.9-2.4,10
		c-1.6,3-3.9,5.5-6.8,7.2C71,60.1,63.1,60.1,56.5,56.5z M74.4,48.1c1.9-2.5,2.8-5.6,2.6-8.8c0.2-3.2-0.8-6.3-2.6-8.9
		c-1.8-2.1-4.5-3.3-7.3-3.3c-2.8,0-5.5,1.2-7.3,3.3c-1.9,2.6-2.8,5.7-2.6,8.9c-0.2,3.1,0.8,6.2,2.6,8.8c1.9,2.1,4.5,3.3,7.3,3.3
		C69.9,51.4,72.5,50.2,74.4,48.1z"/>
	<path id="Shape_2_" class="st0" d="M93.4,4.7h9.5v9.5h-9.5V4.7z M93.4,20.1h9.5v38.4h-9.5V20.1z"/>
	<path id="Shape_3_" class="st0" d="M142,24.2c2.6,3.7,3.9,8.2,3.7,12.8v21.5h-9.5V37.8c0.2-2.8-0.4-5.5-1.8-7.9
		c-1.4-1.8-3.6-2.8-5.8-2.6c-2.8-0.1-5.4,1.2-7.2,3.3v27.9h-9.6V20.1h8.9l0.1,2.7c3-2.1,6.6-3.3,10.3-3.3
		C135.4,19.2,139.4,21,142,24.2z"/>
	<path id="Shape_4_" class="st0" d="M158.6,56.3c-1.7-2-2.7-4.5-2.6-7.1V27.9h-5.5l0.8-7.8h4.6v-8.4l9.5-1v9.4h8.4v7.8h-8.4v17.4
		c-0.1,1.4,0.1,2.9,0.3,4.3c0.2,0.7,0.7,1.3,1.5,1.5c1.3,0.3,2.7,0.4,4,0.3h2.6l-0.8,7.8h-6.8C163.4,59.4,160.6,58.3,158.6,56.3z"/>
</g>
<g id="u">
	<path id="Shape_5_" class="st1" d="M50.6,12.8h-5.8L55,0l10.2,12.8h-5.8v22.4C59.5,53.1,49.3,57,37.8,57
		c8.2-4.2,13.4-12.6,13.4-21.8L50.6,12.8z"/>
	<path id="Shape_6_" class="st0" d="M46.1,34.6V16h-7.7l7.7-9.6V4.5H32.6v30.1c-0.1,5.2-4.4,9.5-9.6,9.6c-5.2-0.1-9.5-4.4-9.6-9.6
		V4.5H0v30.1C-0.1,47.4,10.2,58,23,58.2C35.9,58,46.2,47.4,46.1,34.6z"/>
</g>
</svg>
