<?xml version="1.0" encoding="utf-8"?>
<!-- Generator: Adobe Illustrator 22.1.0, SVG Export Plug-In . SVG Version: 6.00 Build 0)  -->
<svg version="1.1" id="icon" xmlns="http://www.w3.org/2000/svg" xmlns:xlink="http://www.w3.org/1999/xlink" x="0px" y="0px"
	 viewBox="0 0 45 40" style="enable-background:new 0 0 45 40;" xml:space="preserve">
<style type="text/css">
	.st0{fill:#FFFFFF;}
</style>
<path id="users" class="st0" d="M44.9,36.8l-1.8-6.3c0-0.1-0.1-0.3-0.2-0.3c-1.1-3.4-3.8-6-7.3-6.9l-0.5-0.1c-0.8-0.2-1.6,0-2.2,0.7
	c-1.9,2.1-4.2,2.3-6.8,2.3s-4.9-0.2-6.8-2.3c-0.6-0.6-1.4-0.9-2.2-0.7l-0.5,0.1c-2.6,0.7-4.8,2.4-6.2,4.6H5.2c0,0,0,0-0.1,0
	c0,0,0-0.1,0-0.2l1.1-4c1-3.1,2.8-4.1,6.5-5c0.2,0,0.3-0.1,0.4-0.2c0.3,0.3,0.6,0.5,1,0.6c0.1,0.1,0.3,0.1,0.4,0.1
	c0.3,0,0.6-0.2,0.8-0.5c0.2-0.4,0-0.9-0.4-1.2c-2-1-3.4-3.9-3.4-7c0-2.7,2.2-4.8,4.8-4.8c0.5,0,1,0.1,1.4,0.2
	C17.3,7.2,17,8.4,17,9.7c0,7.3,4.4,13.5,9.6,13.5c5.1,0,9.6-6.3,9.6-13.5c0-5.4-4.3-9.7-9.6-9.7c-3.4,0-6.3,1.8-8,4.4
	c-0.7-0.3-1.5-0.4-2.3-0.4c-2.3,0-4.3,1.2-5.5,3.1C10.7,7.1,10.6,7,10.5,7c-0.6-0.3-1.3-0.5-2-0.5c-2.4,0-4.3,1.9-4.3,4.3
	c0,1.4,0.4,2.7,1,3.7c-2,0.5-3.7,1.3-4.5,3.9l-0.7,2.5c-0.1,0.4,0,0.9,0.2,1.2c0.3,0.4,0.7,0.6,1.2,0.6h3.3c0,0.2-0.1,0.3-0.2,0.5
	l-1.1,4c-0.2,0.6,0,1.2,0.3,1.6c0.3,0.5,0.8,0.7,1.4,0.7h4.5c-0.1,0.3-0.2,0.6-0.3,0.9l-1.8,6.3c-0.2,0.7,0,1.5,0.4,2.1
	c0.5,0.6,1.1,0.9,1.9,0.9h25.5h1.4h5.7c0.7,0,1.4-0.3,1.9-0.9C45,38.4,45.1,37.6,44.9,36.8z M19.6,6.1c0,0,0.1-0.1,0.1-0.2
	c0,0,0-0.1,0.1-0.2c1.3-2.4,3.9-4,6.8-4c3.5,0,6.5,2.4,7.5,5.6c-1.5,0.3-3.1-0.3-4-1.6c-0.3-0.4-0.8-0.5-1.2-0.2
	c-0.2,0.1-0.3,0.3-0.3,0.4c0,0,0,0.1-0.1,0.1c-1.2,2.4-5.2,3.5-9.7,2.6C18.9,7.8,19.2,7,19.6,6.1z M21.9,10.7c3.4,0,6.2-1.1,7.6-3.1
	c1.1,0.9,2.4,1.5,3.8,1.5c0.3,0,0.7,0,1.1-0.1c0,0.3,0,0.5,0,0.7c0,6.3-3.7,11.8-7.9,11.8c-4,0-7.6-5.1-7.9-11.1
	C19.8,10.6,20.9,10.7,21.9,10.7z M1.8,21l0.6-2.1c0.5-1.8,1.6-2.3,3.7-2.8c0.1,0,0.3-0.1,0.3-0.2c0.2,0.2,0.4,0.3,0.6,0.4
	c0.1,0.1,0.3,0.1,0.4,0.1c0.3,0,0.6-0.2,0.8-0.5c0.2-0.4,0-0.9-0.3-1.2c-1.1-0.6-1.9-2.3-1.9-4c0-1.5,1.1-2.6,2.6-2.6
	c0.5,0,0.8,0.1,1.2,0.3c0.1,0,0.2,0.1,0.3,0.1c-0.2,0.6-0.3,1.3-0.3,2.1c0,2.4,0.8,4.8,2.1,6.5c-2.5,0.6-4.8,1.5-6.3,3.9H1.8z
	 M43.2,37.9c-0.1,0.1-0.3,0.3-0.6,0.3h-5.7h-1.4H10c-0.3,0-0.5-0.2-0.6-0.3c-0.1-0.2-0.2-0.4-0.1-0.6l1.8-6.3c0.8-3,3.2-5.3,6.2-6
	l0.5-0.1c0.1,0,0.3,0,0.5,0.2c2.3,2.7,5.2,2.9,8,2.9s5.7-0.2,8-2.9c0.1-0.1,0.3-0.2,0.5-0.2l0.5,0.1c2.9,0.8,5.3,3.1,6.2,6l0.8,2.7
	c0,0.1,0.1,0.2,0.2,0.3l0.9,3.3C43.3,37.5,43.3,37.8,43.2,37.9z"/>
</svg>
